G75*
%MOIN*%
%OFA0B0*%
%FSLAX24Y24*%
%IPPOS*%
%LPD*%
%AMOC8*
5,1,8,0,0,1.08239X$1,22.5*
%
%ADD10C,0.0120*%
%ADD11C,0.0160*%
%ADD12C,0.0660*%
%ADD13R,0.0650X0.0650*%
%ADD14R,0.0650X0.0650*%
%ADD15C,0.0740*%
%ADD16C,0.0059*%
%ADD17C,0.0500*%
D10*
X037476Y025290D02*
X037706Y025060D01*
X038166Y025060D01*
X038396Y025290D01*
X038396Y025751D02*
X037936Y025981D01*
X037706Y025981D01*
X037476Y025751D01*
X037476Y025290D01*
X038396Y025751D02*
X038396Y026441D01*
X037476Y026441D01*
X039317Y026441D02*
X039317Y025060D01*
X038857Y025060D02*
X039778Y025060D01*
X040238Y025290D02*
X040468Y025060D01*
X040929Y025060D01*
X041159Y025290D01*
X040238Y026211D01*
X040238Y025290D01*
X039778Y025981D02*
X039317Y026441D01*
X040238Y026211D02*
X040468Y026441D01*
X040929Y026441D01*
X041159Y026211D01*
X041159Y025290D01*
X041619Y025060D02*
X042540Y025060D01*
X041619Y025981D01*
X041619Y026211D01*
X041849Y026441D01*
X042310Y026441D01*
X042540Y026211D01*
D11*
X037020Y026922D02*
X037020Y025080D01*
X035792Y025080D02*
X035792Y026922D01*
X035178Y026308D02*
X034565Y026922D01*
X033951Y026308D01*
X033951Y025080D01*
X033337Y025080D02*
X033337Y026922D01*
X032109Y025080D01*
X032109Y026922D01*
X031495Y026615D02*
X031495Y025387D01*
X031188Y025080D01*
X030574Y025080D01*
X030268Y025387D01*
X030268Y026615D01*
X030574Y026922D01*
X031188Y026922D01*
X031495Y026615D01*
X029654Y026922D02*
X029654Y025080D01*
X028733Y025080D01*
X028426Y025387D01*
X028426Y025694D01*
X028733Y026001D01*
X029654Y026001D01*
X029654Y026922D02*
X028733Y026922D01*
X028426Y026615D01*
X028426Y026308D01*
X028733Y026001D01*
X027812Y026001D02*
X027198Y026001D01*
X026584Y026922D02*
X027812Y026922D01*
X027812Y025080D01*
X026584Y025080D01*
X025971Y025080D02*
X024743Y025080D01*
X024129Y025387D02*
X023822Y025080D01*
X023208Y025080D01*
X022901Y025387D01*
X022901Y025694D01*
X023208Y026001D01*
X023822Y026001D01*
X024129Y026308D01*
X024129Y026615D01*
X023822Y026922D01*
X023208Y026922D01*
X022901Y026615D01*
X024743Y026922D02*
X025971Y026922D01*
X025971Y025080D01*
X025971Y026001D02*
X025357Y026001D01*
X033951Y026001D02*
X035178Y026001D01*
X035178Y026308D02*
X035178Y025080D01*
X035792Y025080D02*
X037020Y026922D01*
D12*
X040100Y029500D03*
X040100Y033250D03*
X044100Y033250D03*
X047100Y031250D03*
X047100Y029500D03*
X047100Y035250D03*
X047100Y037000D03*
X040100Y037000D03*
X034850Y035250D03*
X032600Y037000D03*
X029350Y033250D03*
X025350Y033250D03*
X025100Y029500D03*
X019850Y031250D03*
X017600Y029500D03*
X014350Y031500D03*
X014350Y033500D03*
X014350Y035500D03*
X017600Y037000D03*
X019850Y035250D03*
X025100Y037000D03*
X032600Y029500D03*
X034850Y031250D03*
X037100Y022000D03*
X034600Y020000D03*
X034600Y016000D03*
X037100Y014000D03*
X040100Y018000D03*
X044100Y018000D03*
X044100Y014000D03*
X044100Y022000D03*
X029600Y022000D03*
X029350Y018000D03*
X025350Y018000D03*
X022100Y014000D03*
X019850Y015750D03*
X019850Y019750D03*
X022100Y022000D03*
X014600Y022000D03*
X014100Y018000D03*
X010100Y018000D03*
X008600Y016000D03*
X007100Y016000D03*
X007100Y014000D03*
X014600Y014000D03*
X008600Y020000D03*
X007100Y020000D03*
X007100Y022000D03*
X010100Y029500D03*
X010350Y031500D03*
X010350Y033500D03*
X010350Y035500D03*
X010100Y037000D03*
X029600Y014000D03*
D13*
X032600Y014000D03*
X025100Y014000D03*
X017600Y014000D03*
X010100Y014000D03*
X010100Y022000D03*
X017600Y022000D03*
X025100Y022000D03*
X032600Y022000D03*
X040100Y022000D03*
X047100Y022000D03*
X044100Y029500D03*
X037100Y029500D03*
X029600Y029500D03*
X022100Y029500D03*
X014600Y029500D03*
X007100Y029500D03*
X007100Y037000D03*
X014600Y037000D03*
X022100Y037000D03*
X029600Y037000D03*
X037100Y037000D03*
X044100Y037000D03*
X047100Y014000D03*
X040100Y014000D03*
D14*
X046994Y008984D03*
X046994Y007016D03*
X043084Y007106D03*
X041116Y007106D03*
X007206Y007016D03*
X007206Y008984D03*
D15*
X012100Y010000D03*
X016100Y010000D03*
X017600Y010000D03*
X019100Y010000D03*
X020600Y010000D03*
X022100Y010000D03*
X023600Y010000D03*
X025100Y010000D03*
X026600Y010000D03*
X028100Y010000D03*
X029600Y010000D03*
X031100Y010000D03*
X032600Y010000D03*
X034100Y010000D03*
X035600Y010000D03*
X037100Y010000D03*
X038600Y010000D03*
X038600Y006000D03*
X037100Y006000D03*
X035600Y006000D03*
X034100Y006000D03*
X032600Y006000D03*
X031100Y006000D03*
X029600Y006000D03*
X028100Y006000D03*
X026600Y006000D03*
X025100Y006000D03*
X023600Y006000D03*
X022100Y006000D03*
X020600Y006000D03*
X019100Y006000D03*
X017600Y006000D03*
D16*
X018994Y025224D02*
X019241Y025426D01*
X019341Y025375D01*
X019482Y025716D01*
X019429Y025744D01*
X019382Y025782D01*
X019344Y025829D01*
X019316Y025882D01*
X019298Y025940D01*
X019292Y026000D01*
X019299Y026063D01*
X019318Y026123D01*
X019349Y026178D01*
X019391Y026225D01*
X019441Y026263D01*
X019498Y026290D01*
X019560Y026305D01*
X019623Y026307D01*
X019685Y026296D01*
X019744Y026272D01*
X019796Y026237D01*
X019840Y026192D01*
X019875Y026139D01*
X019897Y026080D01*
X019907Y026017D01*
X019904Y025954D01*
X019888Y025893D01*
X019860Y025836D01*
X019822Y025787D01*
X019773Y025746D01*
X019718Y025716D01*
X019859Y025375D01*
X019959Y025426D01*
X020206Y025224D01*
X020376Y025394D01*
X020174Y025641D01*
X020225Y025741D01*
X020259Y025848D01*
X020577Y025880D01*
X020577Y026120D01*
X020259Y026152D01*
X020225Y026259D01*
X020174Y026359D01*
X020376Y026606D01*
X020206Y026776D01*
X019959Y026574D01*
X019859Y026625D01*
X019752Y026659D01*
X019720Y026977D01*
X019480Y026977D01*
X019448Y026659D01*
X019341Y026625D01*
X019241Y026574D01*
X018994Y026776D01*
X018824Y026606D01*
X019026Y026359D01*
X018975Y026259D01*
X018941Y026152D01*
X018623Y026120D01*
X018623Y025880D01*
X018941Y025848D01*
X018975Y025741D01*
X019026Y025641D01*
X018824Y025394D01*
X018994Y025224D01*
X018959Y025259D02*
X019037Y025259D01*
X019108Y025317D02*
X018901Y025317D01*
X018844Y025375D02*
X019178Y025375D01*
X019365Y025432D02*
X018856Y025432D01*
X018902Y025490D02*
X019389Y025490D01*
X019412Y025547D02*
X018949Y025547D01*
X018996Y025605D02*
X019436Y025605D01*
X019460Y025662D02*
X019015Y025662D01*
X018986Y025720D02*
X019475Y025720D01*
X019389Y025777D02*
X018963Y025777D01*
X018945Y025835D02*
X019341Y025835D01*
X019313Y025893D02*
X018623Y025893D01*
X018623Y025950D02*
X019297Y025950D01*
X019293Y026008D02*
X018623Y026008D01*
X018623Y026065D02*
X019300Y026065D01*
X019318Y026123D02*
X018651Y026123D01*
X018950Y026180D02*
X019351Y026180D01*
X019407Y026238D02*
X018968Y026238D01*
X018994Y026295D02*
X019520Y026295D01*
X019685Y026295D02*
X020206Y026295D01*
X020232Y026238D02*
X019795Y026238D01*
X019848Y026180D02*
X020250Y026180D01*
X020177Y026353D02*
X019023Y026353D01*
X018984Y026411D02*
X020216Y026411D01*
X020263Y026468D02*
X018937Y026468D01*
X018890Y026526D02*
X020310Y026526D01*
X020357Y026583D02*
X019970Y026583D01*
X019940Y026583D02*
X019260Y026583D01*
X019230Y026583D02*
X018843Y026583D01*
X018859Y026641D02*
X019159Y026641D01*
X019089Y026698D02*
X018917Y026698D01*
X018974Y026756D02*
X019018Y026756D01*
X019390Y026641D02*
X019810Y026641D01*
X019748Y026698D02*
X019452Y026698D01*
X019458Y026756D02*
X019742Y026756D01*
X019737Y026813D02*
X019463Y026813D01*
X019469Y026871D02*
X019731Y026871D01*
X019725Y026929D02*
X019475Y026929D01*
X020041Y026641D02*
X020341Y026641D01*
X020283Y026698D02*
X020111Y026698D01*
X020182Y026756D02*
X020226Y026756D01*
X020549Y026123D02*
X019881Y026123D01*
X019899Y026065D02*
X020577Y026065D01*
X020577Y026008D02*
X019907Y026008D01*
X019903Y025950D02*
X020577Y025950D01*
X020577Y025893D02*
X019888Y025893D01*
X019859Y025835D02*
X020255Y025835D01*
X020237Y025777D02*
X019811Y025777D01*
X019725Y025720D02*
X020214Y025720D01*
X020185Y025662D02*
X019740Y025662D01*
X019764Y025605D02*
X020204Y025605D01*
X020251Y025547D02*
X019788Y025547D01*
X019811Y025490D02*
X020298Y025490D01*
X020344Y025432D02*
X019835Y025432D01*
X020022Y025375D02*
X020356Y025375D01*
X020299Y025317D02*
X020092Y025317D01*
X020163Y025259D02*
X020241Y025259D01*
D17*
X004600Y007000D02*
X001100Y010500D01*
X001100Y026500D01*
X007100Y032500D01*
X007100Y037000D01*
X010100Y037000D02*
X014600Y037000D01*
X014350Y035500D02*
X014350Y033500D01*
X018600Y033500D01*
X019850Y034750D01*
X019850Y035250D01*
X019850Y036250D01*
X019100Y037000D01*
X017600Y037000D01*
X019850Y036250D02*
X020600Y037000D01*
X022100Y037000D01*
X025100Y037000D02*
X029600Y037000D01*
X032600Y037000D02*
X034100Y037000D01*
X034850Y036250D01*
X035600Y037000D01*
X037100Y037000D01*
X034850Y036250D02*
X034850Y035250D01*
X034850Y034500D01*
X033600Y033250D01*
X029350Y033250D01*
X025350Y033250D02*
X020850Y033250D01*
X019850Y032250D01*
X019850Y031250D01*
X019850Y030250D01*
X020600Y029500D01*
X022100Y029500D01*
X019850Y030250D02*
X019100Y029500D01*
X017600Y029500D01*
X014600Y029500D02*
X010100Y029500D01*
X010350Y031500D02*
X009100Y031500D01*
X007100Y029500D01*
X002600Y025000D01*
X002600Y011500D01*
X005116Y008984D01*
X007206Y008984D01*
X007222Y009000D01*
X008600Y009000D01*
X009600Y008000D01*
X040600Y008000D01*
X041116Y007484D01*
X041116Y007106D01*
X041100Y007091D01*
X041100Y006500D01*
X040600Y006000D01*
X038600Y006000D01*
X037100Y006000D02*
X035600Y006000D01*
X034100Y006000D02*
X032600Y006000D01*
X031100Y006000D02*
X029600Y006000D01*
X028100Y006000D02*
X026600Y006000D01*
X025100Y006000D02*
X023600Y006000D01*
X022100Y006000D02*
X020600Y006000D01*
X019100Y006000D02*
X017600Y006000D01*
X017600Y010000D02*
X016100Y010000D01*
X014600Y012500D02*
X043600Y012500D01*
X046994Y009106D01*
X046994Y008984D01*
X046994Y007016D02*
X046994Y006894D01*
X046100Y006000D01*
X041600Y006000D01*
X041116Y006484D01*
X041116Y007106D01*
X043084Y007106D02*
X043084Y009016D01*
X042100Y010000D01*
X038600Y010000D01*
X037100Y010000D01*
X035600Y010000D02*
X034100Y010000D01*
X032600Y010000D02*
X031100Y010000D01*
X029600Y010000D02*
X028100Y010000D01*
X026600Y010000D02*
X025100Y010000D01*
X023600Y010000D02*
X022100Y010000D01*
X020600Y010000D02*
X019100Y010000D01*
X014600Y012500D02*
X012100Y010000D01*
X009600Y012500D01*
X005600Y012500D01*
X004100Y014000D01*
X004100Y019500D01*
X004600Y020000D01*
X004100Y020500D01*
X004100Y021500D01*
X004600Y022000D01*
X007100Y022000D01*
X007100Y020000D02*
X004600Y020000D01*
X006100Y018000D02*
X008100Y018000D01*
X008600Y018500D01*
X009100Y018000D01*
X010100Y018000D01*
X008600Y018500D02*
X008600Y020000D01*
X010100Y022000D02*
X014600Y022000D01*
X017600Y022000D02*
X019100Y022000D01*
X019850Y021250D01*
X020600Y022000D01*
X022100Y022000D01*
X019850Y021250D02*
X019850Y019750D01*
X019850Y019250D01*
X018600Y018000D01*
X014100Y018000D01*
X014600Y014000D02*
X010100Y014000D01*
X008600Y016000D02*
X007100Y016000D01*
X005600Y014500D02*
X005600Y017500D01*
X006100Y018000D01*
X005600Y014500D02*
X006100Y014000D01*
X007100Y014000D01*
X007206Y007016D02*
X007191Y007000D01*
X004600Y007000D01*
X017600Y014000D02*
X019100Y014000D01*
X019850Y014750D01*
X020600Y014000D01*
X022100Y014000D01*
X019850Y014750D02*
X019850Y015750D01*
X019850Y016750D01*
X021100Y018000D01*
X025350Y018000D01*
X029350Y018000D02*
X033100Y018000D01*
X034600Y019500D01*
X034600Y020000D01*
X034600Y021000D01*
X035600Y022000D01*
X037100Y022000D01*
X034600Y021000D02*
X033600Y022000D01*
X032600Y022000D01*
X029600Y022000D02*
X025100Y022000D01*
X025100Y029500D02*
X029600Y029500D01*
X032600Y029500D02*
X034100Y029500D01*
X034850Y030250D01*
X035600Y029500D01*
X037100Y029500D01*
X034850Y030250D02*
X034850Y031000D01*
X034850Y031250D01*
X034850Y032250D01*
X035850Y033250D01*
X040100Y033250D01*
X044100Y033250D02*
X044850Y033250D01*
X045100Y033250D01*
X047100Y035250D01*
X047100Y037000D01*
X044100Y037000D02*
X040100Y037000D01*
X044850Y033250D02*
X045600Y032500D01*
X045600Y020500D01*
X047100Y019000D01*
X047100Y014000D01*
X045600Y013000D02*
X046100Y012500D01*
X048100Y012500D01*
X048600Y013000D01*
X048600Y020000D01*
X047100Y021500D01*
X047100Y022000D01*
X047100Y029500D01*
X047100Y031250D01*
X044100Y029500D02*
X040100Y029500D01*
X040100Y022000D02*
X044100Y022000D01*
X044100Y018000D02*
X045600Y016500D01*
X045600Y013000D01*
X044100Y014000D02*
X040100Y014000D01*
X037100Y014000D02*
X035600Y014000D01*
X034600Y015000D01*
X034600Y016000D01*
X034600Y017000D01*
X035600Y018000D01*
X040100Y018000D01*
X034600Y015000D02*
X033600Y014000D01*
X032600Y014000D01*
X029600Y014000D02*
X025100Y014000D01*
X014350Y031500D02*
X014350Y033500D01*
X010350Y033500D02*
X010350Y031500D01*
X010350Y033500D02*
X010350Y035500D01*
M02*
