G75*
%MOIN*%
%OFA0B0*%
%FSLAX24Y24*%
%IPPOS*%
%LPD*%
%AMOC8*
5,1,8,0,0,1.08239X$1,22.5*
%
%ADD10C,0.0080*%
%ADD11C,0.0060*%
%ADD12R,0.0200X0.1000*%
%ADD13R,0.0750X0.0300*%
%ADD14R,0.1000X0.0200*%
%ADD15R,0.0300X0.0750*%
%ADD16C,0.0050*%
D10*
X012860Y009528D02*
X012860Y010472D01*
X015340Y010472D01*
X015340Y009528D01*
X012860Y009528D01*
X017128Y009240D02*
X017128Y006760D01*
X018072Y006760D01*
X018072Y009240D01*
X017128Y009240D01*
X018628Y009240D02*
X018628Y006760D01*
X019572Y006760D01*
X019572Y009240D01*
X018628Y009240D01*
X020128Y009240D02*
X021072Y009240D01*
X021072Y006760D01*
X020128Y006760D01*
X020128Y009240D01*
X021628Y009240D02*
X021628Y006760D01*
X022572Y006760D01*
X022572Y009240D01*
X021628Y009240D01*
X023128Y009240D02*
X024072Y009240D01*
X024072Y006760D01*
X023128Y006760D01*
X023128Y009240D01*
X024628Y009240D02*
X024628Y006760D01*
X025572Y006760D01*
X025572Y009240D01*
X024628Y009240D01*
X026128Y009240D02*
X027072Y009240D01*
X027072Y006760D01*
X026128Y006760D01*
X026128Y009240D01*
X027628Y009240D02*
X027628Y006760D01*
X028572Y006760D01*
X028572Y009240D01*
X027628Y009240D01*
X029128Y009240D02*
X030072Y009240D01*
X030072Y006760D01*
X029128Y006760D01*
X029128Y009240D01*
X030628Y009240D02*
X030628Y006760D01*
X031572Y006760D01*
X031572Y009240D01*
X030628Y009240D01*
X032128Y009240D02*
X033072Y009240D01*
X033072Y006760D01*
X032128Y006760D01*
X032128Y009240D01*
X033628Y009240D02*
X033628Y006760D01*
X034572Y006760D01*
X034572Y009240D01*
X033628Y009240D01*
X035128Y009240D02*
X036072Y009240D01*
X036072Y006760D01*
X035128Y006760D01*
X035128Y009240D01*
X036628Y009240D02*
X036628Y006760D01*
X037572Y006760D01*
X037572Y009240D01*
X036628Y009240D01*
X038128Y009240D02*
X039072Y009240D01*
X039072Y006760D01*
X038128Y006760D01*
X038128Y009240D01*
X035450Y014000D02*
X035452Y014112D01*
X035458Y014223D01*
X035468Y014335D01*
X035482Y014446D01*
X035499Y014556D01*
X035521Y014666D01*
X035547Y014775D01*
X035576Y014883D01*
X035609Y014989D01*
X035646Y015095D01*
X035687Y015199D01*
X035732Y015302D01*
X035780Y015403D01*
X035831Y015502D01*
X035886Y015599D01*
X035945Y015694D01*
X036006Y015788D01*
X036071Y015879D01*
X036140Y015967D01*
X036211Y016053D01*
X036285Y016137D01*
X036363Y016217D01*
X036443Y016295D01*
X036526Y016371D01*
X036611Y016443D01*
X036699Y016512D01*
X036789Y016578D01*
X036882Y016640D01*
X036977Y016700D01*
X037074Y016756D01*
X037172Y016808D01*
X037273Y016857D01*
X037375Y016902D01*
X037479Y016944D01*
X037584Y016982D01*
X037691Y017016D01*
X037798Y017046D01*
X037907Y017073D01*
X038016Y017095D01*
X038127Y017114D01*
X038237Y017129D01*
X038349Y017140D01*
X038460Y017147D01*
X038572Y017150D01*
X038684Y017149D01*
X038796Y017144D01*
X038907Y017135D01*
X039018Y017122D01*
X039129Y017105D01*
X039239Y017085D01*
X039348Y017060D01*
X039456Y017032D01*
X039563Y016999D01*
X039669Y016963D01*
X039773Y016923D01*
X039876Y016880D01*
X039978Y016833D01*
X040077Y016782D01*
X040175Y016728D01*
X040271Y016670D01*
X040365Y016609D01*
X040456Y016545D01*
X040545Y016478D01*
X040632Y016407D01*
X040716Y016333D01*
X040798Y016257D01*
X040876Y016177D01*
X040952Y016095D01*
X041025Y016010D01*
X041095Y015923D01*
X041161Y015833D01*
X041225Y015741D01*
X041285Y015647D01*
X041342Y015551D01*
X041395Y015452D01*
X041445Y015352D01*
X041491Y015251D01*
X041534Y015147D01*
X041573Y015042D01*
X041608Y014936D01*
X041639Y014829D01*
X041667Y014720D01*
X041690Y014611D01*
X041710Y014501D01*
X041726Y014390D01*
X041738Y014279D01*
X041746Y014168D01*
X041750Y014056D01*
X041750Y013944D01*
X041746Y013832D01*
X041738Y013721D01*
X041726Y013610D01*
X041710Y013499D01*
X041690Y013389D01*
X041667Y013280D01*
X041639Y013171D01*
X041608Y013064D01*
X041573Y012958D01*
X041534Y012853D01*
X041491Y012749D01*
X041445Y012648D01*
X041395Y012548D01*
X041342Y012449D01*
X041285Y012353D01*
X041225Y012259D01*
X041161Y012167D01*
X041095Y012077D01*
X041025Y011990D01*
X040952Y011905D01*
X040876Y011823D01*
X040798Y011743D01*
X040716Y011667D01*
X040632Y011593D01*
X040545Y011522D01*
X040456Y011455D01*
X040365Y011391D01*
X040271Y011330D01*
X040175Y011272D01*
X040077Y011218D01*
X039978Y011167D01*
X039876Y011120D01*
X039773Y011077D01*
X039669Y011037D01*
X039563Y011001D01*
X039456Y010968D01*
X039348Y010940D01*
X039239Y010915D01*
X039129Y010895D01*
X039018Y010878D01*
X038907Y010865D01*
X038796Y010856D01*
X038684Y010851D01*
X038572Y010850D01*
X038460Y010853D01*
X038349Y010860D01*
X038237Y010871D01*
X038127Y010886D01*
X038016Y010905D01*
X037907Y010927D01*
X037798Y010954D01*
X037691Y010984D01*
X037584Y011018D01*
X037479Y011056D01*
X037375Y011098D01*
X037273Y011143D01*
X037172Y011192D01*
X037074Y011244D01*
X036977Y011300D01*
X036882Y011360D01*
X036789Y011422D01*
X036699Y011488D01*
X036611Y011557D01*
X036526Y011629D01*
X036443Y011705D01*
X036363Y011783D01*
X036285Y011863D01*
X036211Y011947D01*
X036140Y012033D01*
X036071Y012121D01*
X036006Y012212D01*
X035945Y012306D01*
X035886Y012401D01*
X035831Y012498D01*
X035780Y012597D01*
X035732Y012698D01*
X035687Y012801D01*
X035646Y012905D01*
X035609Y013011D01*
X035576Y013117D01*
X035547Y013225D01*
X035521Y013334D01*
X035499Y013444D01*
X035482Y013554D01*
X035468Y013665D01*
X035458Y013777D01*
X035452Y013888D01*
X035450Y014000D01*
X036850Y014750D02*
X037350Y014750D01*
X027950Y014000D02*
X027952Y014112D01*
X027958Y014223D01*
X027968Y014335D01*
X027982Y014446D01*
X027999Y014556D01*
X028021Y014666D01*
X028047Y014775D01*
X028076Y014883D01*
X028109Y014989D01*
X028146Y015095D01*
X028187Y015199D01*
X028232Y015302D01*
X028280Y015403D01*
X028331Y015502D01*
X028386Y015599D01*
X028445Y015694D01*
X028506Y015788D01*
X028571Y015879D01*
X028640Y015967D01*
X028711Y016053D01*
X028785Y016137D01*
X028863Y016217D01*
X028943Y016295D01*
X029026Y016371D01*
X029111Y016443D01*
X029199Y016512D01*
X029289Y016578D01*
X029382Y016640D01*
X029477Y016700D01*
X029574Y016756D01*
X029672Y016808D01*
X029773Y016857D01*
X029875Y016902D01*
X029979Y016944D01*
X030084Y016982D01*
X030191Y017016D01*
X030298Y017046D01*
X030407Y017073D01*
X030516Y017095D01*
X030627Y017114D01*
X030737Y017129D01*
X030849Y017140D01*
X030960Y017147D01*
X031072Y017150D01*
X031184Y017149D01*
X031296Y017144D01*
X031407Y017135D01*
X031518Y017122D01*
X031629Y017105D01*
X031739Y017085D01*
X031848Y017060D01*
X031956Y017032D01*
X032063Y016999D01*
X032169Y016963D01*
X032273Y016923D01*
X032376Y016880D01*
X032478Y016833D01*
X032577Y016782D01*
X032675Y016728D01*
X032771Y016670D01*
X032865Y016609D01*
X032956Y016545D01*
X033045Y016478D01*
X033132Y016407D01*
X033216Y016333D01*
X033298Y016257D01*
X033376Y016177D01*
X033452Y016095D01*
X033525Y016010D01*
X033595Y015923D01*
X033661Y015833D01*
X033725Y015741D01*
X033785Y015647D01*
X033842Y015551D01*
X033895Y015452D01*
X033945Y015352D01*
X033991Y015251D01*
X034034Y015147D01*
X034073Y015042D01*
X034108Y014936D01*
X034139Y014829D01*
X034167Y014720D01*
X034190Y014611D01*
X034210Y014501D01*
X034226Y014390D01*
X034238Y014279D01*
X034246Y014168D01*
X034250Y014056D01*
X034250Y013944D01*
X034246Y013832D01*
X034238Y013721D01*
X034226Y013610D01*
X034210Y013499D01*
X034190Y013389D01*
X034167Y013280D01*
X034139Y013171D01*
X034108Y013064D01*
X034073Y012958D01*
X034034Y012853D01*
X033991Y012749D01*
X033945Y012648D01*
X033895Y012548D01*
X033842Y012449D01*
X033785Y012353D01*
X033725Y012259D01*
X033661Y012167D01*
X033595Y012077D01*
X033525Y011990D01*
X033452Y011905D01*
X033376Y011823D01*
X033298Y011743D01*
X033216Y011667D01*
X033132Y011593D01*
X033045Y011522D01*
X032956Y011455D01*
X032865Y011391D01*
X032771Y011330D01*
X032675Y011272D01*
X032577Y011218D01*
X032478Y011167D01*
X032376Y011120D01*
X032273Y011077D01*
X032169Y011037D01*
X032063Y011001D01*
X031956Y010968D01*
X031848Y010940D01*
X031739Y010915D01*
X031629Y010895D01*
X031518Y010878D01*
X031407Y010865D01*
X031296Y010856D01*
X031184Y010851D01*
X031072Y010850D01*
X030960Y010853D01*
X030849Y010860D01*
X030737Y010871D01*
X030627Y010886D01*
X030516Y010905D01*
X030407Y010927D01*
X030298Y010954D01*
X030191Y010984D01*
X030084Y011018D01*
X029979Y011056D01*
X029875Y011098D01*
X029773Y011143D01*
X029672Y011192D01*
X029574Y011244D01*
X029477Y011300D01*
X029382Y011360D01*
X029289Y011422D01*
X029199Y011488D01*
X029111Y011557D01*
X029026Y011629D01*
X028943Y011705D01*
X028863Y011783D01*
X028785Y011863D01*
X028711Y011947D01*
X028640Y012033D01*
X028571Y012121D01*
X028506Y012212D01*
X028445Y012306D01*
X028386Y012401D01*
X028331Y012498D01*
X028280Y012597D01*
X028232Y012698D01*
X028187Y012801D01*
X028146Y012905D01*
X028109Y013011D01*
X028076Y013117D01*
X028047Y013225D01*
X028021Y013334D01*
X027999Y013444D01*
X027982Y013554D01*
X027968Y013665D01*
X027958Y013777D01*
X027952Y013888D01*
X027950Y014000D01*
X029350Y014750D02*
X029850Y014750D01*
X020450Y014000D02*
X020452Y014112D01*
X020458Y014223D01*
X020468Y014335D01*
X020482Y014446D01*
X020499Y014556D01*
X020521Y014666D01*
X020547Y014775D01*
X020576Y014883D01*
X020609Y014989D01*
X020646Y015095D01*
X020687Y015199D01*
X020732Y015302D01*
X020780Y015403D01*
X020831Y015502D01*
X020886Y015599D01*
X020945Y015694D01*
X021006Y015788D01*
X021071Y015879D01*
X021140Y015967D01*
X021211Y016053D01*
X021285Y016137D01*
X021363Y016217D01*
X021443Y016295D01*
X021526Y016371D01*
X021611Y016443D01*
X021699Y016512D01*
X021789Y016578D01*
X021882Y016640D01*
X021977Y016700D01*
X022074Y016756D01*
X022172Y016808D01*
X022273Y016857D01*
X022375Y016902D01*
X022479Y016944D01*
X022584Y016982D01*
X022691Y017016D01*
X022798Y017046D01*
X022907Y017073D01*
X023016Y017095D01*
X023127Y017114D01*
X023237Y017129D01*
X023349Y017140D01*
X023460Y017147D01*
X023572Y017150D01*
X023684Y017149D01*
X023796Y017144D01*
X023907Y017135D01*
X024018Y017122D01*
X024129Y017105D01*
X024239Y017085D01*
X024348Y017060D01*
X024456Y017032D01*
X024563Y016999D01*
X024669Y016963D01*
X024773Y016923D01*
X024876Y016880D01*
X024978Y016833D01*
X025077Y016782D01*
X025175Y016728D01*
X025271Y016670D01*
X025365Y016609D01*
X025456Y016545D01*
X025545Y016478D01*
X025632Y016407D01*
X025716Y016333D01*
X025798Y016257D01*
X025876Y016177D01*
X025952Y016095D01*
X026025Y016010D01*
X026095Y015923D01*
X026161Y015833D01*
X026225Y015741D01*
X026285Y015647D01*
X026342Y015551D01*
X026395Y015452D01*
X026445Y015352D01*
X026491Y015251D01*
X026534Y015147D01*
X026573Y015042D01*
X026608Y014936D01*
X026639Y014829D01*
X026667Y014720D01*
X026690Y014611D01*
X026710Y014501D01*
X026726Y014390D01*
X026738Y014279D01*
X026746Y014168D01*
X026750Y014056D01*
X026750Y013944D01*
X026746Y013832D01*
X026738Y013721D01*
X026726Y013610D01*
X026710Y013499D01*
X026690Y013389D01*
X026667Y013280D01*
X026639Y013171D01*
X026608Y013064D01*
X026573Y012958D01*
X026534Y012853D01*
X026491Y012749D01*
X026445Y012648D01*
X026395Y012548D01*
X026342Y012449D01*
X026285Y012353D01*
X026225Y012259D01*
X026161Y012167D01*
X026095Y012077D01*
X026025Y011990D01*
X025952Y011905D01*
X025876Y011823D01*
X025798Y011743D01*
X025716Y011667D01*
X025632Y011593D01*
X025545Y011522D01*
X025456Y011455D01*
X025365Y011391D01*
X025271Y011330D01*
X025175Y011272D01*
X025077Y011218D01*
X024978Y011167D01*
X024876Y011120D01*
X024773Y011077D01*
X024669Y011037D01*
X024563Y011001D01*
X024456Y010968D01*
X024348Y010940D01*
X024239Y010915D01*
X024129Y010895D01*
X024018Y010878D01*
X023907Y010865D01*
X023796Y010856D01*
X023684Y010851D01*
X023572Y010850D01*
X023460Y010853D01*
X023349Y010860D01*
X023237Y010871D01*
X023127Y010886D01*
X023016Y010905D01*
X022907Y010927D01*
X022798Y010954D01*
X022691Y010984D01*
X022584Y011018D01*
X022479Y011056D01*
X022375Y011098D01*
X022273Y011143D01*
X022172Y011192D01*
X022074Y011244D01*
X021977Y011300D01*
X021882Y011360D01*
X021789Y011422D01*
X021699Y011488D01*
X021611Y011557D01*
X021526Y011629D01*
X021443Y011705D01*
X021363Y011783D01*
X021285Y011863D01*
X021211Y011947D01*
X021140Y012033D01*
X021071Y012121D01*
X021006Y012212D01*
X020945Y012306D01*
X020886Y012401D01*
X020831Y012498D01*
X020780Y012597D01*
X020732Y012698D01*
X020687Y012801D01*
X020646Y012905D01*
X020609Y013011D01*
X020576Y013117D01*
X020547Y013225D01*
X020521Y013334D01*
X020499Y013444D01*
X020482Y013554D01*
X020468Y013665D01*
X020458Y013777D01*
X020452Y013888D01*
X020450Y014000D01*
X021850Y014750D02*
X022350Y014750D01*
X012950Y014000D02*
X012952Y014112D01*
X012958Y014223D01*
X012968Y014335D01*
X012982Y014446D01*
X012999Y014556D01*
X013021Y014666D01*
X013047Y014775D01*
X013076Y014883D01*
X013109Y014989D01*
X013146Y015095D01*
X013187Y015199D01*
X013232Y015302D01*
X013280Y015403D01*
X013331Y015502D01*
X013386Y015599D01*
X013445Y015694D01*
X013506Y015788D01*
X013571Y015879D01*
X013640Y015967D01*
X013711Y016053D01*
X013785Y016137D01*
X013863Y016217D01*
X013943Y016295D01*
X014026Y016371D01*
X014111Y016443D01*
X014199Y016512D01*
X014289Y016578D01*
X014382Y016640D01*
X014477Y016700D01*
X014574Y016756D01*
X014672Y016808D01*
X014773Y016857D01*
X014875Y016902D01*
X014979Y016944D01*
X015084Y016982D01*
X015191Y017016D01*
X015298Y017046D01*
X015407Y017073D01*
X015516Y017095D01*
X015627Y017114D01*
X015737Y017129D01*
X015849Y017140D01*
X015960Y017147D01*
X016072Y017150D01*
X016184Y017149D01*
X016296Y017144D01*
X016407Y017135D01*
X016518Y017122D01*
X016629Y017105D01*
X016739Y017085D01*
X016848Y017060D01*
X016956Y017032D01*
X017063Y016999D01*
X017169Y016963D01*
X017273Y016923D01*
X017376Y016880D01*
X017478Y016833D01*
X017577Y016782D01*
X017675Y016728D01*
X017771Y016670D01*
X017865Y016609D01*
X017956Y016545D01*
X018045Y016478D01*
X018132Y016407D01*
X018216Y016333D01*
X018298Y016257D01*
X018376Y016177D01*
X018452Y016095D01*
X018525Y016010D01*
X018595Y015923D01*
X018661Y015833D01*
X018725Y015741D01*
X018785Y015647D01*
X018842Y015551D01*
X018895Y015452D01*
X018945Y015352D01*
X018991Y015251D01*
X019034Y015147D01*
X019073Y015042D01*
X019108Y014936D01*
X019139Y014829D01*
X019167Y014720D01*
X019190Y014611D01*
X019210Y014501D01*
X019226Y014390D01*
X019238Y014279D01*
X019246Y014168D01*
X019250Y014056D01*
X019250Y013944D01*
X019246Y013832D01*
X019238Y013721D01*
X019226Y013610D01*
X019210Y013499D01*
X019190Y013389D01*
X019167Y013280D01*
X019139Y013171D01*
X019108Y013064D01*
X019073Y012958D01*
X019034Y012853D01*
X018991Y012749D01*
X018945Y012648D01*
X018895Y012548D01*
X018842Y012449D01*
X018785Y012353D01*
X018725Y012259D01*
X018661Y012167D01*
X018595Y012077D01*
X018525Y011990D01*
X018452Y011905D01*
X018376Y011823D01*
X018298Y011743D01*
X018216Y011667D01*
X018132Y011593D01*
X018045Y011522D01*
X017956Y011455D01*
X017865Y011391D01*
X017771Y011330D01*
X017675Y011272D01*
X017577Y011218D01*
X017478Y011167D01*
X017376Y011120D01*
X017273Y011077D01*
X017169Y011037D01*
X017063Y011001D01*
X016956Y010968D01*
X016848Y010940D01*
X016739Y010915D01*
X016629Y010895D01*
X016518Y010878D01*
X016407Y010865D01*
X016296Y010856D01*
X016184Y010851D01*
X016072Y010850D01*
X015960Y010853D01*
X015849Y010860D01*
X015737Y010871D01*
X015627Y010886D01*
X015516Y010905D01*
X015407Y010927D01*
X015298Y010954D01*
X015191Y010984D01*
X015084Y011018D01*
X014979Y011056D01*
X014875Y011098D01*
X014773Y011143D01*
X014672Y011192D01*
X014574Y011244D01*
X014477Y011300D01*
X014382Y011360D01*
X014289Y011422D01*
X014199Y011488D01*
X014111Y011557D01*
X014026Y011629D01*
X013943Y011705D01*
X013863Y011783D01*
X013785Y011863D01*
X013711Y011947D01*
X013640Y012033D01*
X013571Y012121D01*
X013506Y012212D01*
X013445Y012306D01*
X013386Y012401D01*
X013331Y012498D01*
X013280Y012597D01*
X013232Y012698D01*
X013187Y012801D01*
X013146Y012905D01*
X013109Y013011D01*
X013076Y013117D01*
X013047Y013225D01*
X013021Y013334D01*
X012999Y013444D01*
X012982Y013554D01*
X012968Y013665D01*
X012958Y013777D01*
X012952Y013888D01*
X012950Y014000D01*
X014350Y014750D02*
X014850Y014750D01*
X005450Y014000D02*
X005452Y014112D01*
X005458Y014223D01*
X005468Y014335D01*
X005482Y014446D01*
X005499Y014556D01*
X005521Y014666D01*
X005547Y014775D01*
X005576Y014883D01*
X005609Y014989D01*
X005646Y015095D01*
X005687Y015199D01*
X005732Y015302D01*
X005780Y015403D01*
X005831Y015502D01*
X005886Y015599D01*
X005945Y015694D01*
X006006Y015788D01*
X006071Y015879D01*
X006140Y015967D01*
X006211Y016053D01*
X006285Y016137D01*
X006363Y016217D01*
X006443Y016295D01*
X006526Y016371D01*
X006611Y016443D01*
X006699Y016512D01*
X006789Y016578D01*
X006882Y016640D01*
X006977Y016700D01*
X007074Y016756D01*
X007172Y016808D01*
X007273Y016857D01*
X007375Y016902D01*
X007479Y016944D01*
X007584Y016982D01*
X007691Y017016D01*
X007798Y017046D01*
X007907Y017073D01*
X008016Y017095D01*
X008127Y017114D01*
X008237Y017129D01*
X008349Y017140D01*
X008460Y017147D01*
X008572Y017150D01*
X008684Y017149D01*
X008796Y017144D01*
X008907Y017135D01*
X009018Y017122D01*
X009129Y017105D01*
X009239Y017085D01*
X009348Y017060D01*
X009456Y017032D01*
X009563Y016999D01*
X009669Y016963D01*
X009773Y016923D01*
X009876Y016880D01*
X009978Y016833D01*
X010077Y016782D01*
X010175Y016728D01*
X010271Y016670D01*
X010365Y016609D01*
X010456Y016545D01*
X010545Y016478D01*
X010632Y016407D01*
X010716Y016333D01*
X010798Y016257D01*
X010876Y016177D01*
X010952Y016095D01*
X011025Y016010D01*
X011095Y015923D01*
X011161Y015833D01*
X011225Y015741D01*
X011285Y015647D01*
X011342Y015551D01*
X011395Y015452D01*
X011445Y015352D01*
X011491Y015251D01*
X011534Y015147D01*
X011573Y015042D01*
X011608Y014936D01*
X011639Y014829D01*
X011667Y014720D01*
X011690Y014611D01*
X011710Y014501D01*
X011726Y014390D01*
X011738Y014279D01*
X011746Y014168D01*
X011750Y014056D01*
X011750Y013944D01*
X011746Y013832D01*
X011738Y013721D01*
X011726Y013610D01*
X011710Y013499D01*
X011690Y013389D01*
X011667Y013280D01*
X011639Y013171D01*
X011608Y013064D01*
X011573Y012958D01*
X011534Y012853D01*
X011491Y012749D01*
X011445Y012648D01*
X011395Y012548D01*
X011342Y012449D01*
X011285Y012353D01*
X011225Y012259D01*
X011161Y012167D01*
X011095Y012077D01*
X011025Y011990D01*
X010952Y011905D01*
X010876Y011823D01*
X010798Y011743D01*
X010716Y011667D01*
X010632Y011593D01*
X010545Y011522D01*
X010456Y011455D01*
X010365Y011391D01*
X010271Y011330D01*
X010175Y011272D01*
X010077Y011218D01*
X009978Y011167D01*
X009876Y011120D01*
X009773Y011077D01*
X009669Y011037D01*
X009563Y011001D01*
X009456Y010968D01*
X009348Y010940D01*
X009239Y010915D01*
X009129Y010895D01*
X009018Y010878D01*
X008907Y010865D01*
X008796Y010856D01*
X008684Y010851D01*
X008572Y010850D01*
X008460Y010853D01*
X008349Y010860D01*
X008237Y010871D01*
X008127Y010886D01*
X008016Y010905D01*
X007907Y010927D01*
X007798Y010954D01*
X007691Y010984D01*
X007584Y011018D01*
X007479Y011056D01*
X007375Y011098D01*
X007273Y011143D01*
X007172Y011192D01*
X007074Y011244D01*
X006977Y011300D01*
X006882Y011360D01*
X006789Y011422D01*
X006699Y011488D01*
X006611Y011557D01*
X006526Y011629D01*
X006443Y011705D01*
X006363Y011783D01*
X006285Y011863D01*
X006211Y011947D01*
X006140Y012033D01*
X006071Y012121D01*
X006006Y012212D01*
X005945Y012306D01*
X005886Y012401D01*
X005831Y012498D01*
X005780Y012597D01*
X005732Y012698D01*
X005687Y012801D01*
X005646Y012905D01*
X005609Y013011D01*
X005576Y013117D01*
X005547Y013225D01*
X005521Y013334D01*
X005499Y013444D01*
X005482Y013554D01*
X005468Y013665D01*
X005458Y013777D01*
X005452Y013888D01*
X005450Y014000D01*
X006850Y014750D02*
X007350Y014750D01*
X005450Y022000D02*
X005452Y022112D01*
X005458Y022223D01*
X005468Y022335D01*
X005482Y022446D01*
X005499Y022556D01*
X005521Y022666D01*
X005547Y022775D01*
X005576Y022883D01*
X005609Y022989D01*
X005646Y023095D01*
X005687Y023199D01*
X005732Y023302D01*
X005780Y023403D01*
X005831Y023502D01*
X005886Y023599D01*
X005945Y023694D01*
X006006Y023788D01*
X006071Y023879D01*
X006140Y023967D01*
X006211Y024053D01*
X006285Y024137D01*
X006363Y024217D01*
X006443Y024295D01*
X006526Y024371D01*
X006611Y024443D01*
X006699Y024512D01*
X006789Y024578D01*
X006882Y024640D01*
X006977Y024700D01*
X007074Y024756D01*
X007172Y024808D01*
X007273Y024857D01*
X007375Y024902D01*
X007479Y024944D01*
X007584Y024982D01*
X007691Y025016D01*
X007798Y025046D01*
X007907Y025073D01*
X008016Y025095D01*
X008127Y025114D01*
X008237Y025129D01*
X008349Y025140D01*
X008460Y025147D01*
X008572Y025150D01*
X008684Y025149D01*
X008796Y025144D01*
X008907Y025135D01*
X009018Y025122D01*
X009129Y025105D01*
X009239Y025085D01*
X009348Y025060D01*
X009456Y025032D01*
X009563Y024999D01*
X009669Y024963D01*
X009773Y024923D01*
X009876Y024880D01*
X009978Y024833D01*
X010077Y024782D01*
X010175Y024728D01*
X010271Y024670D01*
X010365Y024609D01*
X010456Y024545D01*
X010545Y024478D01*
X010632Y024407D01*
X010716Y024333D01*
X010798Y024257D01*
X010876Y024177D01*
X010952Y024095D01*
X011025Y024010D01*
X011095Y023923D01*
X011161Y023833D01*
X011225Y023741D01*
X011285Y023647D01*
X011342Y023551D01*
X011395Y023452D01*
X011445Y023352D01*
X011491Y023251D01*
X011534Y023147D01*
X011573Y023042D01*
X011608Y022936D01*
X011639Y022829D01*
X011667Y022720D01*
X011690Y022611D01*
X011710Y022501D01*
X011726Y022390D01*
X011738Y022279D01*
X011746Y022168D01*
X011750Y022056D01*
X011750Y021944D01*
X011746Y021832D01*
X011738Y021721D01*
X011726Y021610D01*
X011710Y021499D01*
X011690Y021389D01*
X011667Y021280D01*
X011639Y021171D01*
X011608Y021064D01*
X011573Y020958D01*
X011534Y020853D01*
X011491Y020749D01*
X011445Y020648D01*
X011395Y020548D01*
X011342Y020449D01*
X011285Y020353D01*
X011225Y020259D01*
X011161Y020167D01*
X011095Y020077D01*
X011025Y019990D01*
X010952Y019905D01*
X010876Y019823D01*
X010798Y019743D01*
X010716Y019667D01*
X010632Y019593D01*
X010545Y019522D01*
X010456Y019455D01*
X010365Y019391D01*
X010271Y019330D01*
X010175Y019272D01*
X010077Y019218D01*
X009978Y019167D01*
X009876Y019120D01*
X009773Y019077D01*
X009669Y019037D01*
X009563Y019001D01*
X009456Y018968D01*
X009348Y018940D01*
X009239Y018915D01*
X009129Y018895D01*
X009018Y018878D01*
X008907Y018865D01*
X008796Y018856D01*
X008684Y018851D01*
X008572Y018850D01*
X008460Y018853D01*
X008349Y018860D01*
X008237Y018871D01*
X008127Y018886D01*
X008016Y018905D01*
X007907Y018927D01*
X007798Y018954D01*
X007691Y018984D01*
X007584Y019018D01*
X007479Y019056D01*
X007375Y019098D01*
X007273Y019143D01*
X007172Y019192D01*
X007074Y019244D01*
X006977Y019300D01*
X006882Y019360D01*
X006789Y019422D01*
X006699Y019488D01*
X006611Y019557D01*
X006526Y019629D01*
X006443Y019705D01*
X006363Y019783D01*
X006285Y019863D01*
X006211Y019947D01*
X006140Y020033D01*
X006071Y020121D01*
X006006Y020212D01*
X005945Y020306D01*
X005886Y020401D01*
X005831Y020498D01*
X005780Y020597D01*
X005732Y020698D01*
X005687Y020801D01*
X005646Y020905D01*
X005609Y021011D01*
X005576Y021117D01*
X005547Y021225D01*
X005521Y021334D01*
X005499Y021444D01*
X005482Y021554D01*
X005468Y021665D01*
X005458Y021777D01*
X005452Y021888D01*
X005450Y022000D01*
X006850Y022750D02*
X007350Y022750D01*
X009850Y028750D02*
X010350Y028750D01*
X005450Y029500D02*
X005452Y029612D01*
X005458Y029723D01*
X005468Y029835D01*
X005482Y029946D01*
X005499Y030056D01*
X005521Y030166D01*
X005547Y030275D01*
X005576Y030383D01*
X005609Y030489D01*
X005646Y030595D01*
X005687Y030699D01*
X005732Y030802D01*
X005780Y030903D01*
X005831Y031002D01*
X005886Y031099D01*
X005945Y031194D01*
X006006Y031288D01*
X006071Y031379D01*
X006140Y031467D01*
X006211Y031553D01*
X006285Y031637D01*
X006363Y031717D01*
X006443Y031795D01*
X006526Y031871D01*
X006611Y031943D01*
X006699Y032012D01*
X006789Y032078D01*
X006882Y032140D01*
X006977Y032200D01*
X007074Y032256D01*
X007172Y032308D01*
X007273Y032357D01*
X007375Y032402D01*
X007479Y032444D01*
X007584Y032482D01*
X007691Y032516D01*
X007798Y032546D01*
X007907Y032573D01*
X008016Y032595D01*
X008127Y032614D01*
X008237Y032629D01*
X008349Y032640D01*
X008460Y032647D01*
X008572Y032650D01*
X008684Y032649D01*
X008796Y032644D01*
X008907Y032635D01*
X009018Y032622D01*
X009129Y032605D01*
X009239Y032585D01*
X009348Y032560D01*
X009456Y032532D01*
X009563Y032499D01*
X009669Y032463D01*
X009773Y032423D01*
X009876Y032380D01*
X009978Y032333D01*
X010077Y032282D01*
X010175Y032228D01*
X010271Y032170D01*
X010365Y032109D01*
X010456Y032045D01*
X010545Y031978D01*
X010632Y031907D01*
X010716Y031833D01*
X010798Y031757D01*
X010876Y031677D01*
X010952Y031595D01*
X011025Y031510D01*
X011095Y031423D01*
X011161Y031333D01*
X011225Y031241D01*
X011285Y031147D01*
X011342Y031051D01*
X011395Y030952D01*
X011445Y030852D01*
X011491Y030751D01*
X011534Y030647D01*
X011573Y030542D01*
X011608Y030436D01*
X011639Y030329D01*
X011667Y030220D01*
X011690Y030111D01*
X011710Y030001D01*
X011726Y029890D01*
X011738Y029779D01*
X011746Y029668D01*
X011750Y029556D01*
X011750Y029444D01*
X011746Y029332D01*
X011738Y029221D01*
X011726Y029110D01*
X011710Y028999D01*
X011690Y028889D01*
X011667Y028780D01*
X011639Y028671D01*
X011608Y028564D01*
X011573Y028458D01*
X011534Y028353D01*
X011491Y028249D01*
X011445Y028148D01*
X011395Y028048D01*
X011342Y027949D01*
X011285Y027853D01*
X011225Y027759D01*
X011161Y027667D01*
X011095Y027577D01*
X011025Y027490D01*
X010952Y027405D01*
X010876Y027323D01*
X010798Y027243D01*
X010716Y027167D01*
X010632Y027093D01*
X010545Y027022D01*
X010456Y026955D01*
X010365Y026891D01*
X010271Y026830D01*
X010175Y026772D01*
X010077Y026718D01*
X009978Y026667D01*
X009876Y026620D01*
X009773Y026577D01*
X009669Y026537D01*
X009563Y026501D01*
X009456Y026468D01*
X009348Y026440D01*
X009239Y026415D01*
X009129Y026395D01*
X009018Y026378D01*
X008907Y026365D01*
X008796Y026356D01*
X008684Y026351D01*
X008572Y026350D01*
X008460Y026353D01*
X008349Y026360D01*
X008237Y026371D01*
X008127Y026386D01*
X008016Y026405D01*
X007907Y026427D01*
X007798Y026454D01*
X007691Y026484D01*
X007584Y026518D01*
X007479Y026556D01*
X007375Y026598D01*
X007273Y026643D01*
X007172Y026692D01*
X007074Y026744D01*
X006977Y026800D01*
X006882Y026860D01*
X006789Y026922D01*
X006699Y026988D01*
X006611Y027057D01*
X006526Y027129D01*
X006443Y027205D01*
X006363Y027283D01*
X006285Y027363D01*
X006211Y027447D01*
X006140Y027533D01*
X006071Y027621D01*
X006006Y027712D01*
X005945Y027806D01*
X005886Y027901D01*
X005831Y027998D01*
X005780Y028097D01*
X005732Y028198D01*
X005687Y028301D01*
X005646Y028405D01*
X005609Y028511D01*
X005576Y028617D01*
X005547Y028725D01*
X005521Y028834D01*
X005499Y028944D01*
X005482Y029054D01*
X005468Y029165D01*
X005458Y029277D01*
X005452Y029388D01*
X005450Y029500D01*
X009850Y036250D02*
X010350Y036250D01*
X005450Y037000D02*
X005452Y037112D01*
X005458Y037223D01*
X005468Y037335D01*
X005482Y037446D01*
X005499Y037556D01*
X005521Y037666D01*
X005547Y037775D01*
X005576Y037883D01*
X005609Y037989D01*
X005646Y038095D01*
X005687Y038199D01*
X005732Y038302D01*
X005780Y038403D01*
X005831Y038502D01*
X005886Y038599D01*
X005945Y038694D01*
X006006Y038788D01*
X006071Y038879D01*
X006140Y038967D01*
X006211Y039053D01*
X006285Y039137D01*
X006363Y039217D01*
X006443Y039295D01*
X006526Y039371D01*
X006611Y039443D01*
X006699Y039512D01*
X006789Y039578D01*
X006882Y039640D01*
X006977Y039700D01*
X007074Y039756D01*
X007172Y039808D01*
X007273Y039857D01*
X007375Y039902D01*
X007479Y039944D01*
X007584Y039982D01*
X007691Y040016D01*
X007798Y040046D01*
X007907Y040073D01*
X008016Y040095D01*
X008127Y040114D01*
X008237Y040129D01*
X008349Y040140D01*
X008460Y040147D01*
X008572Y040150D01*
X008684Y040149D01*
X008796Y040144D01*
X008907Y040135D01*
X009018Y040122D01*
X009129Y040105D01*
X009239Y040085D01*
X009348Y040060D01*
X009456Y040032D01*
X009563Y039999D01*
X009669Y039963D01*
X009773Y039923D01*
X009876Y039880D01*
X009978Y039833D01*
X010077Y039782D01*
X010175Y039728D01*
X010271Y039670D01*
X010365Y039609D01*
X010456Y039545D01*
X010545Y039478D01*
X010632Y039407D01*
X010716Y039333D01*
X010798Y039257D01*
X010876Y039177D01*
X010952Y039095D01*
X011025Y039010D01*
X011095Y038923D01*
X011161Y038833D01*
X011225Y038741D01*
X011285Y038647D01*
X011342Y038551D01*
X011395Y038452D01*
X011445Y038352D01*
X011491Y038251D01*
X011534Y038147D01*
X011573Y038042D01*
X011608Y037936D01*
X011639Y037829D01*
X011667Y037720D01*
X011690Y037611D01*
X011710Y037501D01*
X011726Y037390D01*
X011738Y037279D01*
X011746Y037168D01*
X011750Y037056D01*
X011750Y036944D01*
X011746Y036832D01*
X011738Y036721D01*
X011726Y036610D01*
X011710Y036499D01*
X011690Y036389D01*
X011667Y036280D01*
X011639Y036171D01*
X011608Y036064D01*
X011573Y035958D01*
X011534Y035853D01*
X011491Y035749D01*
X011445Y035648D01*
X011395Y035548D01*
X011342Y035449D01*
X011285Y035353D01*
X011225Y035259D01*
X011161Y035167D01*
X011095Y035077D01*
X011025Y034990D01*
X010952Y034905D01*
X010876Y034823D01*
X010798Y034743D01*
X010716Y034667D01*
X010632Y034593D01*
X010545Y034522D01*
X010456Y034455D01*
X010365Y034391D01*
X010271Y034330D01*
X010175Y034272D01*
X010077Y034218D01*
X009978Y034167D01*
X009876Y034120D01*
X009773Y034077D01*
X009669Y034037D01*
X009563Y034001D01*
X009456Y033968D01*
X009348Y033940D01*
X009239Y033915D01*
X009129Y033895D01*
X009018Y033878D01*
X008907Y033865D01*
X008796Y033856D01*
X008684Y033851D01*
X008572Y033850D01*
X008460Y033853D01*
X008349Y033860D01*
X008237Y033871D01*
X008127Y033886D01*
X008016Y033905D01*
X007907Y033927D01*
X007798Y033954D01*
X007691Y033984D01*
X007584Y034018D01*
X007479Y034056D01*
X007375Y034098D01*
X007273Y034143D01*
X007172Y034192D01*
X007074Y034244D01*
X006977Y034300D01*
X006882Y034360D01*
X006789Y034422D01*
X006699Y034488D01*
X006611Y034557D01*
X006526Y034629D01*
X006443Y034705D01*
X006363Y034783D01*
X006285Y034863D01*
X006211Y034947D01*
X006140Y035033D01*
X006071Y035121D01*
X006006Y035212D01*
X005945Y035306D01*
X005886Y035401D01*
X005831Y035498D01*
X005780Y035597D01*
X005732Y035698D01*
X005687Y035801D01*
X005646Y035905D01*
X005609Y036011D01*
X005576Y036117D01*
X005547Y036225D01*
X005521Y036334D01*
X005499Y036444D01*
X005482Y036554D01*
X005468Y036665D01*
X005458Y036777D01*
X005452Y036888D01*
X005450Y037000D01*
X012950Y037000D02*
X012952Y037112D01*
X012958Y037223D01*
X012968Y037335D01*
X012982Y037446D01*
X012999Y037556D01*
X013021Y037666D01*
X013047Y037775D01*
X013076Y037883D01*
X013109Y037989D01*
X013146Y038095D01*
X013187Y038199D01*
X013232Y038302D01*
X013280Y038403D01*
X013331Y038502D01*
X013386Y038599D01*
X013445Y038694D01*
X013506Y038788D01*
X013571Y038879D01*
X013640Y038967D01*
X013711Y039053D01*
X013785Y039137D01*
X013863Y039217D01*
X013943Y039295D01*
X014026Y039371D01*
X014111Y039443D01*
X014199Y039512D01*
X014289Y039578D01*
X014382Y039640D01*
X014477Y039700D01*
X014574Y039756D01*
X014672Y039808D01*
X014773Y039857D01*
X014875Y039902D01*
X014979Y039944D01*
X015084Y039982D01*
X015191Y040016D01*
X015298Y040046D01*
X015407Y040073D01*
X015516Y040095D01*
X015627Y040114D01*
X015737Y040129D01*
X015849Y040140D01*
X015960Y040147D01*
X016072Y040150D01*
X016184Y040149D01*
X016296Y040144D01*
X016407Y040135D01*
X016518Y040122D01*
X016629Y040105D01*
X016739Y040085D01*
X016848Y040060D01*
X016956Y040032D01*
X017063Y039999D01*
X017169Y039963D01*
X017273Y039923D01*
X017376Y039880D01*
X017478Y039833D01*
X017577Y039782D01*
X017675Y039728D01*
X017771Y039670D01*
X017865Y039609D01*
X017956Y039545D01*
X018045Y039478D01*
X018132Y039407D01*
X018216Y039333D01*
X018298Y039257D01*
X018376Y039177D01*
X018452Y039095D01*
X018525Y039010D01*
X018595Y038923D01*
X018661Y038833D01*
X018725Y038741D01*
X018785Y038647D01*
X018842Y038551D01*
X018895Y038452D01*
X018945Y038352D01*
X018991Y038251D01*
X019034Y038147D01*
X019073Y038042D01*
X019108Y037936D01*
X019139Y037829D01*
X019167Y037720D01*
X019190Y037611D01*
X019210Y037501D01*
X019226Y037390D01*
X019238Y037279D01*
X019246Y037168D01*
X019250Y037056D01*
X019250Y036944D01*
X019246Y036832D01*
X019238Y036721D01*
X019226Y036610D01*
X019210Y036499D01*
X019190Y036389D01*
X019167Y036280D01*
X019139Y036171D01*
X019108Y036064D01*
X019073Y035958D01*
X019034Y035853D01*
X018991Y035749D01*
X018945Y035648D01*
X018895Y035548D01*
X018842Y035449D01*
X018785Y035353D01*
X018725Y035259D01*
X018661Y035167D01*
X018595Y035077D01*
X018525Y034990D01*
X018452Y034905D01*
X018376Y034823D01*
X018298Y034743D01*
X018216Y034667D01*
X018132Y034593D01*
X018045Y034522D01*
X017956Y034455D01*
X017865Y034391D01*
X017771Y034330D01*
X017675Y034272D01*
X017577Y034218D01*
X017478Y034167D01*
X017376Y034120D01*
X017273Y034077D01*
X017169Y034037D01*
X017063Y034001D01*
X016956Y033968D01*
X016848Y033940D01*
X016739Y033915D01*
X016629Y033895D01*
X016518Y033878D01*
X016407Y033865D01*
X016296Y033856D01*
X016184Y033851D01*
X016072Y033850D01*
X015960Y033853D01*
X015849Y033860D01*
X015737Y033871D01*
X015627Y033886D01*
X015516Y033905D01*
X015407Y033927D01*
X015298Y033954D01*
X015191Y033984D01*
X015084Y034018D01*
X014979Y034056D01*
X014875Y034098D01*
X014773Y034143D01*
X014672Y034192D01*
X014574Y034244D01*
X014477Y034300D01*
X014382Y034360D01*
X014289Y034422D01*
X014199Y034488D01*
X014111Y034557D01*
X014026Y034629D01*
X013943Y034705D01*
X013863Y034783D01*
X013785Y034863D01*
X013711Y034947D01*
X013640Y035033D01*
X013571Y035121D01*
X013506Y035212D01*
X013445Y035306D01*
X013386Y035401D01*
X013331Y035498D01*
X013280Y035597D01*
X013232Y035698D01*
X013187Y035801D01*
X013146Y035905D01*
X013109Y036011D01*
X013076Y036117D01*
X013047Y036225D01*
X013021Y036334D01*
X012999Y036444D01*
X012982Y036554D01*
X012968Y036665D01*
X012958Y036777D01*
X012952Y036888D01*
X012950Y037000D01*
X017350Y036250D02*
X017850Y036250D01*
X020450Y037000D02*
X020452Y037112D01*
X020458Y037223D01*
X020468Y037335D01*
X020482Y037446D01*
X020499Y037556D01*
X020521Y037666D01*
X020547Y037775D01*
X020576Y037883D01*
X020609Y037989D01*
X020646Y038095D01*
X020687Y038199D01*
X020732Y038302D01*
X020780Y038403D01*
X020831Y038502D01*
X020886Y038599D01*
X020945Y038694D01*
X021006Y038788D01*
X021071Y038879D01*
X021140Y038967D01*
X021211Y039053D01*
X021285Y039137D01*
X021363Y039217D01*
X021443Y039295D01*
X021526Y039371D01*
X021611Y039443D01*
X021699Y039512D01*
X021789Y039578D01*
X021882Y039640D01*
X021977Y039700D01*
X022074Y039756D01*
X022172Y039808D01*
X022273Y039857D01*
X022375Y039902D01*
X022479Y039944D01*
X022584Y039982D01*
X022691Y040016D01*
X022798Y040046D01*
X022907Y040073D01*
X023016Y040095D01*
X023127Y040114D01*
X023237Y040129D01*
X023349Y040140D01*
X023460Y040147D01*
X023572Y040150D01*
X023684Y040149D01*
X023796Y040144D01*
X023907Y040135D01*
X024018Y040122D01*
X024129Y040105D01*
X024239Y040085D01*
X024348Y040060D01*
X024456Y040032D01*
X024563Y039999D01*
X024669Y039963D01*
X024773Y039923D01*
X024876Y039880D01*
X024978Y039833D01*
X025077Y039782D01*
X025175Y039728D01*
X025271Y039670D01*
X025365Y039609D01*
X025456Y039545D01*
X025545Y039478D01*
X025632Y039407D01*
X025716Y039333D01*
X025798Y039257D01*
X025876Y039177D01*
X025952Y039095D01*
X026025Y039010D01*
X026095Y038923D01*
X026161Y038833D01*
X026225Y038741D01*
X026285Y038647D01*
X026342Y038551D01*
X026395Y038452D01*
X026445Y038352D01*
X026491Y038251D01*
X026534Y038147D01*
X026573Y038042D01*
X026608Y037936D01*
X026639Y037829D01*
X026667Y037720D01*
X026690Y037611D01*
X026710Y037501D01*
X026726Y037390D01*
X026738Y037279D01*
X026746Y037168D01*
X026750Y037056D01*
X026750Y036944D01*
X026746Y036832D01*
X026738Y036721D01*
X026726Y036610D01*
X026710Y036499D01*
X026690Y036389D01*
X026667Y036280D01*
X026639Y036171D01*
X026608Y036064D01*
X026573Y035958D01*
X026534Y035853D01*
X026491Y035749D01*
X026445Y035648D01*
X026395Y035548D01*
X026342Y035449D01*
X026285Y035353D01*
X026225Y035259D01*
X026161Y035167D01*
X026095Y035077D01*
X026025Y034990D01*
X025952Y034905D01*
X025876Y034823D01*
X025798Y034743D01*
X025716Y034667D01*
X025632Y034593D01*
X025545Y034522D01*
X025456Y034455D01*
X025365Y034391D01*
X025271Y034330D01*
X025175Y034272D01*
X025077Y034218D01*
X024978Y034167D01*
X024876Y034120D01*
X024773Y034077D01*
X024669Y034037D01*
X024563Y034001D01*
X024456Y033968D01*
X024348Y033940D01*
X024239Y033915D01*
X024129Y033895D01*
X024018Y033878D01*
X023907Y033865D01*
X023796Y033856D01*
X023684Y033851D01*
X023572Y033850D01*
X023460Y033853D01*
X023349Y033860D01*
X023237Y033871D01*
X023127Y033886D01*
X023016Y033905D01*
X022907Y033927D01*
X022798Y033954D01*
X022691Y033984D01*
X022584Y034018D01*
X022479Y034056D01*
X022375Y034098D01*
X022273Y034143D01*
X022172Y034192D01*
X022074Y034244D01*
X021977Y034300D01*
X021882Y034360D01*
X021789Y034422D01*
X021699Y034488D01*
X021611Y034557D01*
X021526Y034629D01*
X021443Y034705D01*
X021363Y034783D01*
X021285Y034863D01*
X021211Y034947D01*
X021140Y035033D01*
X021071Y035121D01*
X021006Y035212D01*
X020945Y035306D01*
X020886Y035401D01*
X020831Y035498D01*
X020780Y035597D01*
X020732Y035698D01*
X020687Y035801D01*
X020646Y035905D01*
X020609Y036011D01*
X020576Y036117D01*
X020547Y036225D01*
X020521Y036334D01*
X020499Y036444D01*
X020482Y036554D01*
X020468Y036665D01*
X020458Y036777D01*
X020452Y036888D01*
X020450Y037000D01*
X024850Y036250D02*
X025350Y036250D01*
X027950Y037000D02*
X027952Y037112D01*
X027958Y037223D01*
X027968Y037335D01*
X027982Y037446D01*
X027999Y037556D01*
X028021Y037666D01*
X028047Y037775D01*
X028076Y037883D01*
X028109Y037989D01*
X028146Y038095D01*
X028187Y038199D01*
X028232Y038302D01*
X028280Y038403D01*
X028331Y038502D01*
X028386Y038599D01*
X028445Y038694D01*
X028506Y038788D01*
X028571Y038879D01*
X028640Y038967D01*
X028711Y039053D01*
X028785Y039137D01*
X028863Y039217D01*
X028943Y039295D01*
X029026Y039371D01*
X029111Y039443D01*
X029199Y039512D01*
X029289Y039578D01*
X029382Y039640D01*
X029477Y039700D01*
X029574Y039756D01*
X029672Y039808D01*
X029773Y039857D01*
X029875Y039902D01*
X029979Y039944D01*
X030084Y039982D01*
X030191Y040016D01*
X030298Y040046D01*
X030407Y040073D01*
X030516Y040095D01*
X030627Y040114D01*
X030737Y040129D01*
X030849Y040140D01*
X030960Y040147D01*
X031072Y040150D01*
X031184Y040149D01*
X031296Y040144D01*
X031407Y040135D01*
X031518Y040122D01*
X031629Y040105D01*
X031739Y040085D01*
X031848Y040060D01*
X031956Y040032D01*
X032063Y039999D01*
X032169Y039963D01*
X032273Y039923D01*
X032376Y039880D01*
X032478Y039833D01*
X032577Y039782D01*
X032675Y039728D01*
X032771Y039670D01*
X032865Y039609D01*
X032956Y039545D01*
X033045Y039478D01*
X033132Y039407D01*
X033216Y039333D01*
X033298Y039257D01*
X033376Y039177D01*
X033452Y039095D01*
X033525Y039010D01*
X033595Y038923D01*
X033661Y038833D01*
X033725Y038741D01*
X033785Y038647D01*
X033842Y038551D01*
X033895Y038452D01*
X033945Y038352D01*
X033991Y038251D01*
X034034Y038147D01*
X034073Y038042D01*
X034108Y037936D01*
X034139Y037829D01*
X034167Y037720D01*
X034190Y037611D01*
X034210Y037501D01*
X034226Y037390D01*
X034238Y037279D01*
X034246Y037168D01*
X034250Y037056D01*
X034250Y036944D01*
X034246Y036832D01*
X034238Y036721D01*
X034226Y036610D01*
X034210Y036499D01*
X034190Y036389D01*
X034167Y036280D01*
X034139Y036171D01*
X034108Y036064D01*
X034073Y035958D01*
X034034Y035853D01*
X033991Y035749D01*
X033945Y035648D01*
X033895Y035548D01*
X033842Y035449D01*
X033785Y035353D01*
X033725Y035259D01*
X033661Y035167D01*
X033595Y035077D01*
X033525Y034990D01*
X033452Y034905D01*
X033376Y034823D01*
X033298Y034743D01*
X033216Y034667D01*
X033132Y034593D01*
X033045Y034522D01*
X032956Y034455D01*
X032865Y034391D01*
X032771Y034330D01*
X032675Y034272D01*
X032577Y034218D01*
X032478Y034167D01*
X032376Y034120D01*
X032273Y034077D01*
X032169Y034037D01*
X032063Y034001D01*
X031956Y033968D01*
X031848Y033940D01*
X031739Y033915D01*
X031629Y033895D01*
X031518Y033878D01*
X031407Y033865D01*
X031296Y033856D01*
X031184Y033851D01*
X031072Y033850D01*
X030960Y033853D01*
X030849Y033860D01*
X030737Y033871D01*
X030627Y033886D01*
X030516Y033905D01*
X030407Y033927D01*
X030298Y033954D01*
X030191Y033984D01*
X030084Y034018D01*
X029979Y034056D01*
X029875Y034098D01*
X029773Y034143D01*
X029672Y034192D01*
X029574Y034244D01*
X029477Y034300D01*
X029382Y034360D01*
X029289Y034422D01*
X029199Y034488D01*
X029111Y034557D01*
X029026Y034629D01*
X028943Y034705D01*
X028863Y034783D01*
X028785Y034863D01*
X028711Y034947D01*
X028640Y035033D01*
X028571Y035121D01*
X028506Y035212D01*
X028445Y035306D01*
X028386Y035401D01*
X028331Y035498D01*
X028280Y035597D01*
X028232Y035698D01*
X028187Y035801D01*
X028146Y035905D01*
X028109Y036011D01*
X028076Y036117D01*
X028047Y036225D01*
X028021Y036334D01*
X027999Y036444D01*
X027982Y036554D01*
X027968Y036665D01*
X027958Y036777D01*
X027952Y036888D01*
X027950Y037000D01*
X032350Y036250D02*
X032850Y036250D01*
X035450Y037000D02*
X035452Y037112D01*
X035458Y037223D01*
X035468Y037335D01*
X035482Y037446D01*
X035499Y037556D01*
X035521Y037666D01*
X035547Y037775D01*
X035576Y037883D01*
X035609Y037989D01*
X035646Y038095D01*
X035687Y038199D01*
X035732Y038302D01*
X035780Y038403D01*
X035831Y038502D01*
X035886Y038599D01*
X035945Y038694D01*
X036006Y038788D01*
X036071Y038879D01*
X036140Y038967D01*
X036211Y039053D01*
X036285Y039137D01*
X036363Y039217D01*
X036443Y039295D01*
X036526Y039371D01*
X036611Y039443D01*
X036699Y039512D01*
X036789Y039578D01*
X036882Y039640D01*
X036977Y039700D01*
X037074Y039756D01*
X037172Y039808D01*
X037273Y039857D01*
X037375Y039902D01*
X037479Y039944D01*
X037584Y039982D01*
X037691Y040016D01*
X037798Y040046D01*
X037907Y040073D01*
X038016Y040095D01*
X038127Y040114D01*
X038237Y040129D01*
X038349Y040140D01*
X038460Y040147D01*
X038572Y040150D01*
X038684Y040149D01*
X038796Y040144D01*
X038907Y040135D01*
X039018Y040122D01*
X039129Y040105D01*
X039239Y040085D01*
X039348Y040060D01*
X039456Y040032D01*
X039563Y039999D01*
X039669Y039963D01*
X039773Y039923D01*
X039876Y039880D01*
X039978Y039833D01*
X040077Y039782D01*
X040175Y039728D01*
X040271Y039670D01*
X040365Y039609D01*
X040456Y039545D01*
X040545Y039478D01*
X040632Y039407D01*
X040716Y039333D01*
X040798Y039257D01*
X040876Y039177D01*
X040952Y039095D01*
X041025Y039010D01*
X041095Y038923D01*
X041161Y038833D01*
X041225Y038741D01*
X041285Y038647D01*
X041342Y038551D01*
X041395Y038452D01*
X041445Y038352D01*
X041491Y038251D01*
X041534Y038147D01*
X041573Y038042D01*
X041608Y037936D01*
X041639Y037829D01*
X041667Y037720D01*
X041690Y037611D01*
X041710Y037501D01*
X041726Y037390D01*
X041738Y037279D01*
X041746Y037168D01*
X041750Y037056D01*
X041750Y036944D01*
X041746Y036832D01*
X041738Y036721D01*
X041726Y036610D01*
X041710Y036499D01*
X041690Y036389D01*
X041667Y036280D01*
X041639Y036171D01*
X041608Y036064D01*
X041573Y035958D01*
X041534Y035853D01*
X041491Y035749D01*
X041445Y035648D01*
X041395Y035548D01*
X041342Y035449D01*
X041285Y035353D01*
X041225Y035259D01*
X041161Y035167D01*
X041095Y035077D01*
X041025Y034990D01*
X040952Y034905D01*
X040876Y034823D01*
X040798Y034743D01*
X040716Y034667D01*
X040632Y034593D01*
X040545Y034522D01*
X040456Y034455D01*
X040365Y034391D01*
X040271Y034330D01*
X040175Y034272D01*
X040077Y034218D01*
X039978Y034167D01*
X039876Y034120D01*
X039773Y034077D01*
X039669Y034037D01*
X039563Y034001D01*
X039456Y033968D01*
X039348Y033940D01*
X039239Y033915D01*
X039129Y033895D01*
X039018Y033878D01*
X038907Y033865D01*
X038796Y033856D01*
X038684Y033851D01*
X038572Y033850D01*
X038460Y033853D01*
X038349Y033860D01*
X038237Y033871D01*
X038127Y033886D01*
X038016Y033905D01*
X037907Y033927D01*
X037798Y033954D01*
X037691Y033984D01*
X037584Y034018D01*
X037479Y034056D01*
X037375Y034098D01*
X037273Y034143D01*
X037172Y034192D01*
X037074Y034244D01*
X036977Y034300D01*
X036882Y034360D01*
X036789Y034422D01*
X036699Y034488D01*
X036611Y034557D01*
X036526Y034629D01*
X036443Y034705D01*
X036363Y034783D01*
X036285Y034863D01*
X036211Y034947D01*
X036140Y035033D01*
X036071Y035121D01*
X036006Y035212D01*
X035945Y035306D01*
X035886Y035401D01*
X035831Y035498D01*
X035780Y035597D01*
X035732Y035698D01*
X035687Y035801D01*
X035646Y035905D01*
X035609Y036011D01*
X035576Y036117D01*
X035547Y036225D01*
X035521Y036334D01*
X035499Y036444D01*
X035482Y036554D01*
X035468Y036665D01*
X035458Y036777D01*
X035452Y036888D01*
X035450Y037000D01*
X039850Y036250D02*
X040350Y036250D01*
X042450Y037000D02*
X042452Y037112D01*
X042458Y037223D01*
X042468Y037335D01*
X042482Y037446D01*
X042499Y037556D01*
X042521Y037666D01*
X042547Y037775D01*
X042576Y037883D01*
X042609Y037989D01*
X042646Y038095D01*
X042687Y038199D01*
X042732Y038302D01*
X042780Y038403D01*
X042831Y038502D01*
X042886Y038599D01*
X042945Y038694D01*
X043006Y038788D01*
X043071Y038879D01*
X043140Y038967D01*
X043211Y039053D01*
X043285Y039137D01*
X043363Y039217D01*
X043443Y039295D01*
X043526Y039371D01*
X043611Y039443D01*
X043699Y039512D01*
X043789Y039578D01*
X043882Y039640D01*
X043977Y039700D01*
X044074Y039756D01*
X044172Y039808D01*
X044273Y039857D01*
X044375Y039902D01*
X044479Y039944D01*
X044584Y039982D01*
X044691Y040016D01*
X044798Y040046D01*
X044907Y040073D01*
X045016Y040095D01*
X045127Y040114D01*
X045237Y040129D01*
X045349Y040140D01*
X045460Y040147D01*
X045572Y040150D01*
X045684Y040149D01*
X045796Y040144D01*
X045907Y040135D01*
X046018Y040122D01*
X046129Y040105D01*
X046239Y040085D01*
X046348Y040060D01*
X046456Y040032D01*
X046563Y039999D01*
X046669Y039963D01*
X046773Y039923D01*
X046876Y039880D01*
X046978Y039833D01*
X047077Y039782D01*
X047175Y039728D01*
X047271Y039670D01*
X047365Y039609D01*
X047456Y039545D01*
X047545Y039478D01*
X047632Y039407D01*
X047716Y039333D01*
X047798Y039257D01*
X047876Y039177D01*
X047952Y039095D01*
X048025Y039010D01*
X048095Y038923D01*
X048161Y038833D01*
X048225Y038741D01*
X048285Y038647D01*
X048342Y038551D01*
X048395Y038452D01*
X048445Y038352D01*
X048491Y038251D01*
X048534Y038147D01*
X048573Y038042D01*
X048608Y037936D01*
X048639Y037829D01*
X048667Y037720D01*
X048690Y037611D01*
X048710Y037501D01*
X048726Y037390D01*
X048738Y037279D01*
X048746Y037168D01*
X048750Y037056D01*
X048750Y036944D01*
X048746Y036832D01*
X048738Y036721D01*
X048726Y036610D01*
X048710Y036499D01*
X048690Y036389D01*
X048667Y036280D01*
X048639Y036171D01*
X048608Y036064D01*
X048573Y035958D01*
X048534Y035853D01*
X048491Y035749D01*
X048445Y035648D01*
X048395Y035548D01*
X048342Y035449D01*
X048285Y035353D01*
X048225Y035259D01*
X048161Y035167D01*
X048095Y035077D01*
X048025Y034990D01*
X047952Y034905D01*
X047876Y034823D01*
X047798Y034743D01*
X047716Y034667D01*
X047632Y034593D01*
X047545Y034522D01*
X047456Y034455D01*
X047365Y034391D01*
X047271Y034330D01*
X047175Y034272D01*
X047077Y034218D01*
X046978Y034167D01*
X046876Y034120D01*
X046773Y034077D01*
X046669Y034037D01*
X046563Y034001D01*
X046456Y033968D01*
X046348Y033940D01*
X046239Y033915D01*
X046129Y033895D01*
X046018Y033878D01*
X045907Y033865D01*
X045796Y033856D01*
X045684Y033851D01*
X045572Y033850D01*
X045460Y033853D01*
X045349Y033860D01*
X045237Y033871D01*
X045127Y033886D01*
X045016Y033905D01*
X044907Y033927D01*
X044798Y033954D01*
X044691Y033984D01*
X044584Y034018D01*
X044479Y034056D01*
X044375Y034098D01*
X044273Y034143D01*
X044172Y034192D01*
X044074Y034244D01*
X043977Y034300D01*
X043882Y034360D01*
X043789Y034422D01*
X043699Y034488D01*
X043611Y034557D01*
X043526Y034629D01*
X043443Y034705D01*
X043363Y034783D01*
X043285Y034863D01*
X043211Y034947D01*
X043140Y035033D01*
X043071Y035121D01*
X043006Y035212D01*
X042945Y035306D01*
X042886Y035401D01*
X042831Y035498D01*
X042780Y035597D01*
X042732Y035698D01*
X042687Y035801D01*
X042646Y035905D01*
X042609Y036011D01*
X042576Y036117D01*
X042547Y036225D01*
X042521Y036334D01*
X042499Y036444D01*
X042482Y036554D01*
X042468Y036665D01*
X042458Y036777D01*
X042452Y036888D01*
X042450Y037000D01*
X046850Y036250D02*
X047350Y036250D01*
X042450Y029500D02*
X042452Y029612D01*
X042458Y029723D01*
X042468Y029835D01*
X042482Y029946D01*
X042499Y030056D01*
X042521Y030166D01*
X042547Y030275D01*
X042576Y030383D01*
X042609Y030489D01*
X042646Y030595D01*
X042687Y030699D01*
X042732Y030802D01*
X042780Y030903D01*
X042831Y031002D01*
X042886Y031099D01*
X042945Y031194D01*
X043006Y031288D01*
X043071Y031379D01*
X043140Y031467D01*
X043211Y031553D01*
X043285Y031637D01*
X043363Y031717D01*
X043443Y031795D01*
X043526Y031871D01*
X043611Y031943D01*
X043699Y032012D01*
X043789Y032078D01*
X043882Y032140D01*
X043977Y032200D01*
X044074Y032256D01*
X044172Y032308D01*
X044273Y032357D01*
X044375Y032402D01*
X044479Y032444D01*
X044584Y032482D01*
X044691Y032516D01*
X044798Y032546D01*
X044907Y032573D01*
X045016Y032595D01*
X045127Y032614D01*
X045237Y032629D01*
X045349Y032640D01*
X045460Y032647D01*
X045572Y032650D01*
X045684Y032649D01*
X045796Y032644D01*
X045907Y032635D01*
X046018Y032622D01*
X046129Y032605D01*
X046239Y032585D01*
X046348Y032560D01*
X046456Y032532D01*
X046563Y032499D01*
X046669Y032463D01*
X046773Y032423D01*
X046876Y032380D01*
X046978Y032333D01*
X047077Y032282D01*
X047175Y032228D01*
X047271Y032170D01*
X047365Y032109D01*
X047456Y032045D01*
X047545Y031978D01*
X047632Y031907D01*
X047716Y031833D01*
X047798Y031757D01*
X047876Y031677D01*
X047952Y031595D01*
X048025Y031510D01*
X048095Y031423D01*
X048161Y031333D01*
X048225Y031241D01*
X048285Y031147D01*
X048342Y031051D01*
X048395Y030952D01*
X048445Y030852D01*
X048491Y030751D01*
X048534Y030647D01*
X048573Y030542D01*
X048608Y030436D01*
X048639Y030329D01*
X048667Y030220D01*
X048690Y030111D01*
X048710Y030001D01*
X048726Y029890D01*
X048738Y029779D01*
X048746Y029668D01*
X048750Y029556D01*
X048750Y029444D01*
X048746Y029332D01*
X048738Y029221D01*
X048726Y029110D01*
X048710Y028999D01*
X048690Y028889D01*
X048667Y028780D01*
X048639Y028671D01*
X048608Y028564D01*
X048573Y028458D01*
X048534Y028353D01*
X048491Y028249D01*
X048445Y028148D01*
X048395Y028048D01*
X048342Y027949D01*
X048285Y027853D01*
X048225Y027759D01*
X048161Y027667D01*
X048095Y027577D01*
X048025Y027490D01*
X047952Y027405D01*
X047876Y027323D01*
X047798Y027243D01*
X047716Y027167D01*
X047632Y027093D01*
X047545Y027022D01*
X047456Y026955D01*
X047365Y026891D01*
X047271Y026830D01*
X047175Y026772D01*
X047077Y026718D01*
X046978Y026667D01*
X046876Y026620D01*
X046773Y026577D01*
X046669Y026537D01*
X046563Y026501D01*
X046456Y026468D01*
X046348Y026440D01*
X046239Y026415D01*
X046129Y026395D01*
X046018Y026378D01*
X045907Y026365D01*
X045796Y026356D01*
X045684Y026351D01*
X045572Y026350D01*
X045460Y026353D01*
X045349Y026360D01*
X045237Y026371D01*
X045127Y026386D01*
X045016Y026405D01*
X044907Y026427D01*
X044798Y026454D01*
X044691Y026484D01*
X044584Y026518D01*
X044479Y026556D01*
X044375Y026598D01*
X044273Y026643D01*
X044172Y026692D01*
X044074Y026744D01*
X043977Y026800D01*
X043882Y026860D01*
X043789Y026922D01*
X043699Y026988D01*
X043611Y027057D01*
X043526Y027129D01*
X043443Y027205D01*
X043363Y027283D01*
X043285Y027363D01*
X043211Y027447D01*
X043140Y027533D01*
X043071Y027621D01*
X043006Y027712D01*
X042945Y027806D01*
X042886Y027901D01*
X042831Y027998D01*
X042780Y028097D01*
X042732Y028198D01*
X042687Y028301D01*
X042646Y028405D01*
X042609Y028511D01*
X042576Y028617D01*
X042547Y028725D01*
X042521Y028834D01*
X042499Y028944D01*
X042482Y029054D01*
X042468Y029165D01*
X042458Y029277D01*
X042452Y029388D01*
X042450Y029500D01*
X040350Y028750D02*
X039850Y028750D01*
X035450Y029500D02*
X035452Y029612D01*
X035458Y029723D01*
X035468Y029835D01*
X035482Y029946D01*
X035499Y030056D01*
X035521Y030166D01*
X035547Y030275D01*
X035576Y030383D01*
X035609Y030489D01*
X035646Y030595D01*
X035687Y030699D01*
X035732Y030802D01*
X035780Y030903D01*
X035831Y031002D01*
X035886Y031099D01*
X035945Y031194D01*
X036006Y031288D01*
X036071Y031379D01*
X036140Y031467D01*
X036211Y031553D01*
X036285Y031637D01*
X036363Y031717D01*
X036443Y031795D01*
X036526Y031871D01*
X036611Y031943D01*
X036699Y032012D01*
X036789Y032078D01*
X036882Y032140D01*
X036977Y032200D01*
X037074Y032256D01*
X037172Y032308D01*
X037273Y032357D01*
X037375Y032402D01*
X037479Y032444D01*
X037584Y032482D01*
X037691Y032516D01*
X037798Y032546D01*
X037907Y032573D01*
X038016Y032595D01*
X038127Y032614D01*
X038237Y032629D01*
X038349Y032640D01*
X038460Y032647D01*
X038572Y032650D01*
X038684Y032649D01*
X038796Y032644D01*
X038907Y032635D01*
X039018Y032622D01*
X039129Y032605D01*
X039239Y032585D01*
X039348Y032560D01*
X039456Y032532D01*
X039563Y032499D01*
X039669Y032463D01*
X039773Y032423D01*
X039876Y032380D01*
X039978Y032333D01*
X040077Y032282D01*
X040175Y032228D01*
X040271Y032170D01*
X040365Y032109D01*
X040456Y032045D01*
X040545Y031978D01*
X040632Y031907D01*
X040716Y031833D01*
X040798Y031757D01*
X040876Y031677D01*
X040952Y031595D01*
X041025Y031510D01*
X041095Y031423D01*
X041161Y031333D01*
X041225Y031241D01*
X041285Y031147D01*
X041342Y031051D01*
X041395Y030952D01*
X041445Y030852D01*
X041491Y030751D01*
X041534Y030647D01*
X041573Y030542D01*
X041608Y030436D01*
X041639Y030329D01*
X041667Y030220D01*
X041690Y030111D01*
X041710Y030001D01*
X041726Y029890D01*
X041738Y029779D01*
X041746Y029668D01*
X041750Y029556D01*
X041750Y029444D01*
X041746Y029332D01*
X041738Y029221D01*
X041726Y029110D01*
X041710Y028999D01*
X041690Y028889D01*
X041667Y028780D01*
X041639Y028671D01*
X041608Y028564D01*
X041573Y028458D01*
X041534Y028353D01*
X041491Y028249D01*
X041445Y028148D01*
X041395Y028048D01*
X041342Y027949D01*
X041285Y027853D01*
X041225Y027759D01*
X041161Y027667D01*
X041095Y027577D01*
X041025Y027490D01*
X040952Y027405D01*
X040876Y027323D01*
X040798Y027243D01*
X040716Y027167D01*
X040632Y027093D01*
X040545Y027022D01*
X040456Y026955D01*
X040365Y026891D01*
X040271Y026830D01*
X040175Y026772D01*
X040077Y026718D01*
X039978Y026667D01*
X039876Y026620D01*
X039773Y026577D01*
X039669Y026537D01*
X039563Y026501D01*
X039456Y026468D01*
X039348Y026440D01*
X039239Y026415D01*
X039129Y026395D01*
X039018Y026378D01*
X038907Y026365D01*
X038796Y026356D01*
X038684Y026351D01*
X038572Y026350D01*
X038460Y026353D01*
X038349Y026360D01*
X038237Y026371D01*
X038127Y026386D01*
X038016Y026405D01*
X037907Y026427D01*
X037798Y026454D01*
X037691Y026484D01*
X037584Y026518D01*
X037479Y026556D01*
X037375Y026598D01*
X037273Y026643D01*
X037172Y026692D01*
X037074Y026744D01*
X036977Y026800D01*
X036882Y026860D01*
X036789Y026922D01*
X036699Y026988D01*
X036611Y027057D01*
X036526Y027129D01*
X036443Y027205D01*
X036363Y027283D01*
X036285Y027363D01*
X036211Y027447D01*
X036140Y027533D01*
X036071Y027621D01*
X036006Y027712D01*
X035945Y027806D01*
X035886Y027901D01*
X035831Y027998D01*
X035780Y028097D01*
X035732Y028198D01*
X035687Y028301D01*
X035646Y028405D01*
X035609Y028511D01*
X035576Y028617D01*
X035547Y028725D01*
X035521Y028834D01*
X035499Y028944D01*
X035482Y029054D01*
X035468Y029165D01*
X035458Y029277D01*
X035452Y029388D01*
X035450Y029500D01*
X032850Y028750D02*
X032350Y028750D01*
X027950Y029500D02*
X027952Y029612D01*
X027958Y029723D01*
X027968Y029835D01*
X027982Y029946D01*
X027999Y030056D01*
X028021Y030166D01*
X028047Y030275D01*
X028076Y030383D01*
X028109Y030489D01*
X028146Y030595D01*
X028187Y030699D01*
X028232Y030802D01*
X028280Y030903D01*
X028331Y031002D01*
X028386Y031099D01*
X028445Y031194D01*
X028506Y031288D01*
X028571Y031379D01*
X028640Y031467D01*
X028711Y031553D01*
X028785Y031637D01*
X028863Y031717D01*
X028943Y031795D01*
X029026Y031871D01*
X029111Y031943D01*
X029199Y032012D01*
X029289Y032078D01*
X029382Y032140D01*
X029477Y032200D01*
X029574Y032256D01*
X029672Y032308D01*
X029773Y032357D01*
X029875Y032402D01*
X029979Y032444D01*
X030084Y032482D01*
X030191Y032516D01*
X030298Y032546D01*
X030407Y032573D01*
X030516Y032595D01*
X030627Y032614D01*
X030737Y032629D01*
X030849Y032640D01*
X030960Y032647D01*
X031072Y032650D01*
X031184Y032649D01*
X031296Y032644D01*
X031407Y032635D01*
X031518Y032622D01*
X031629Y032605D01*
X031739Y032585D01*
X031848Y032560D01*
X031956Y032532D01*
X032063Y032499D01*
X032169Y032463D01*
X032273Y032423D01*
X032376Y032380D01*
X032478Y032333D01*
X032577Y032282D01*
X032675Y032228D01*
X032771Y032170D01*
X032865Y032109D01*
X032956Y032045D01*
X033045Y031978D01*
X033132Y031907D01*
X033216Y031833D01*
X033298Y031757D01*
X033376Y031677D01*
X033452Y031595D01*
X033525Y031510D01*
X033595Y031423D01*
X033661Y031333D01*
X033725Y031241D01*
X033785Y031147D01*
X033842Y031051D01*
X033895Y030952D01*
X033945Y030852D01*
X033991Y030751D01*
X034034Y030647D01*
X034073Y030542D01*
X034108Y030436D01*
X034139Y030329D01*
X034167Y030220D01*
X034190Y030111D01*
X034210Y030001D01*
X034226Y029890D01*
X034238Y029779D01*
X034246Y029668D01*
X034250Y029556D01*
X034250Y029444D01*
X034246Y029332D01*
X034238Y029221D01*
X034226Y029110D01*
X034210Y028999D01*
X034190Y028889D01*
X034167Y028780D01*
X034139Y028671D01*
X034108Y028564D01*
X034073Y028458D01*
X034034Y028353D01*
X033991Y028249D01*
X033945Y028148D01*
X033895Y028048D01*
X033842Y027949D01*
X033785Y027853D01*
X033725Y027759D01*
X033661Y027667D01*
X033595Y027577D01*
X033525Y027490D01*
X033452Y027405D01*
X033376Y027323D01*
X033298Y027243D01*
X033216Y027167D01*
X033132Y027093D01*
X033045Y027022D01*
X032956Y026955D01*
X032865Y026891D01*
X032771Y026830D01*
X032675Y026772D01*
X032577Y026718D01*
X032478Y026667D01*
X032376Y026620D01*
X032273Y026577D01*
X032169Y026537D01*
X032063Y026501D01*
X031956Y026468D01*
X031848Y026440D01*
X031739Y026415D01*
X031629Y026395D01*
X031518Y026378D01*
X031407Y026365D01*
X031296Y026356D01*
X031184Y026351D01*
X031072Y026350D01*
X030960Y026353D01*
X030849Y026360D01*
X030737Y026371D01*
X030627Y026386D01*
X030516Y026405D01*
X030407Y026427D01*
X030298Y026454D01*
X030191Y026484D01*
X030084Y026518D01*
X029979Y026556D01*
X029875Y026598D01*
X029773Y026643D01*
X029672Y026692D01*
X029574Y026744D01*
X029477Y026800D01*
X029382Y026860D01*
X029289Y026922D01*
X029199Y026988D01*
X029111Y027057D01*
X029026Y027129D01*
X028943Y027205D01*
X028863Y027283D01*
X028785Y027363D01*
X028711Y027447D01*
X028640Y027533D01*
X028571Y027621D01*
X028506Y027712D01*
X028445Y027806D01*
X028386Y027901D01*
X028331Y027998D01*
X028280Y028097D01*
X028232Y028198D01*
X028187Y028301D01*
X028146Y028405D01*
X028109Y028511D01*
X028076Y028617D01*
X028047Y028725D01*
X028021Y028834D01*
X027999Y028944D01*
X027982Y029054D01*
X027968Y029165D01*
X027958Y029277D01*
X027952Y029388D01*
X027950Y029500D01*
X025350Y028750D02*
X024850Y028750D01*
X020450Y029500D02*
X020452Y029612D01*
X020458Y029723D01*
X020468Y029835D01*
X020482Y029946D01*
X020499Y030056D01*
X020521Y030166D01*
X020547Y030275D01*
X020576Y030383D01*
X020609Y030489D01*
X020646Y030595D01*
X020687Y030699D01*
X020732Y030802D01*
X020780Y030903D01*
X020831Y031002D01*
X020886Y031099D01*
X020945Y031194D01*
X021006Y031288D01*
X021071Y031379D01*
X021140Y031467D01*
X021211Y031553D01*
X021285Y031637D01*
X021363Y031717D01*
X021443Y031795D01*
X021526Y031871D01*
X021611Y031943D01*
X021699Y032012D01*
X021789Y032078D01*
X021882Y032140D01*
X021977Y032200D01*
X022074Y032256D01*
X022172Y032308D01*
X022273Y032357D01*
X022375Y032402D01*
X022479Y032444D01*
X022584Y032482D01*
X022691Y032516D01*
X022798Y032546D01*
X022907Y032573D01*
X023016Y032595D01*
X023127Y032614D01*
X023237Y032629D01*
X023349Y032640D01*
X023460Y032647D01*
X023572Y032650D01*
X023684Y032649D01*
X023796Y032644D01*
X023907Y032635D01*
X024018Y032622D01*
X024129Y032605D01*
X024239Y032585D01*
X024348Y032560D01*
X024456Y032532D01*
X024563Y032499D01*
X024669Y032463D01*
X024773Y032423D01*
X024876Y032380D01*
X024978Y032333D01*
X025077Y032282D01*
X025175Y032228D01*
X025271Y032170D01*
X025365Y032109D01*
X025456Y032045D01*
X025545Y031978D01*
X025632Y031907D01*
X025716Y031833D01*
X025798Y031757D01*
X025876Y031677D01*
X025952Y031595D01*
X026025Y031510D01*
X026095Y031423D01*
X026161Y031333D01*
X026225Y031241D01*
X026285Y031147D01*
X026342Y031051D01*
X026395Y030952D01*
X026445Y030852D01*
X026491Y030751D01*
X026534Y030647D01*
X026573Y030542D01*
X026608Y030436D01*
X026639Y030329D01*
X026667Y030220D01*
X026690Y030111D01*
X026710Y030001D01*
X026726Y029890D01*
X026738Y029779D01*
X026746Y029668D01*
X026750Y029556D01*
X026750Y029444D01*
X026746Y029332D01*
X026738Y029221D01*
X026726Y029110D01*
X026710Y028999D01*
X026690Y028889D01*
X026667Y028780D01*
X026639Y028671D01*
X026608Y028564D01*
X026573Y028458D01*
X026534Y028353D01*
X026491Y028249D01*
X026445Y028148D01*
X026395Y028048D01*
X026342Y027949D01*
X026285Y027853D01*
X026225Y027759D01*
X026161Y027667D01*
X026095Y027577D01*
X026025Y027490D01*
X025952Y027405D01*
X025876Y027323D01*
X025798Y027243D01*
X025716Y027167D01*
X025632Y027093D01*
X025545Y027022D01*
X025456Y026955D01*
X025365Y026891D01*
X025271Y026830D01*
X025175Y026772D01*
X025077Y026718D01*
X024978Y026667D01*
X024876Y026620D01*
X024773Y026577D01*
X024669Y026537D01*
X024563Y026501D01*
X024456Y026468D01*
X024348Y026440D01*
X024239Y026415D01*
X024129Y026395D01*
X024018Y026378D01*
X023907Y026365D01*
X023796Y026356D01*
X023684Y026351D01*
X023572Y026350D01*
X023460Y026353D01*
X023349Y026360D01*
X023237Y026371D01*
X023127Y026386D01*
X023016Y026405D01*
X022907Y026427D01*
X022798Y026454D01*
X022691Y026484D01*
X022584Y026518D01*
X022479Y026556D01*
X022375Y026598D01*
X022273Y026643D01*
X022172Y026692D01*
X022074Y026744D01*
X021977Y026800D01*
X021882Y026860D01*
X021789Y026922D01*
X021699Y026988D01*
X021611Y027057D01*
X021526Y027129D01*
X021443Y027205D01*
X021363Y027283D01*
X021285Y027363D01*
X021211Y027447D01*
X021140Y027533D01*
X021071Y027621D01*
X021006Y027712D01*
X020945Y027806D01*
X020886Y027901D01*
X020831Y027998D01*
X020780Y028097D01*
X020732Y028198D01*
X020687Y028301D01*
X020646Y028405D01*
X020609Y028511D01*
X020576Y028617D01*
X020547Y028725D01*
X020521Y028834D01*
X020499Y028944D01*
X020482Y029054D01*
X020468Y029165D01*
X020458Y029277D01*
X020452Y029388D01*
X020450Y029500D01*
X017850Y028750D02*
X017350Y028750D01*
X012950Y029500D02*
X012952Y029612D01*
X012958Y029723D01*
X012968Y029835D01*
X012982Y029946D01*
X012999Y030056D01*
X013021Y030166D01*
X013047Y030275D01*
X013076Y030383D01*
X013109Y030489D01*
X013146Y030595D01*
X013187Y030699D01*
X013232Y030802D01*
X013280Y030903D01*
X013331Y031002D01*
X013386Y031099D01*
X013445Y031194D01*
X013506Y031288D01*
X013571Y031379D01*
X013640Y031467D01*
X013711Y031553D01*
X013785Y031637D01*
X013863Y031717D01*
X013943Y031795D01*
X014026Y031871D01*
X014111Y031943D01*
X014199Y032012D01*
X014289Y032078D01*
X014382Y032140D01*
X014477Y032200D01*
X014574Y032256D01*
X014672Y032308D01*
X014773Y032357D01*
X014875Y032402D01*
X014979Y032444D01*
X015084Y032482D01*
X015191Y032516D01*
X015298Y032546D01*
X015407Y032573D01*
X015516Y032595D01*
X015627Y032614D01*
X015737Y032629D01*
X015849Y032640D01*
X015960Y032647D01*
X016072Y032650D01*
X016184Y032649D01*
X016296Y032644D01*
X016407Y032635D01*
X016518Y032622D01*
X016629Y032605D01*
X016739Y032585D01*
X016848Y032560D01*
X016956Y032532D01*
X017063Y032499D01*
X017169Y032463D01*
X017273Y032423D01*
X017376Y032380D01*
X017478Y032333D01*
X017577Y032282D01*
X017675Y032228D01*
X017771Y032170D01*
X017865Y032109D01*
X017956Y032045D01*
X018045Y031978D01*
X018132Y031907D01*
X018216Y031833D01*
X018298Y031757D01*
X018376Y031677D01*
X018452Y031595D01*
X018525Y031510D01*
X018595Y031423D01*
X018661Y031333D01*
X018725Y031241D01*
X018785Y031147D01*
X018842Y031051D01*
X018895Y030952D01*
X018945Y030852D01*
X018991Y030751D01*
X019034Y030647D01*
X019073Y030542D01*
X019108Y030436D01*
X019139Y030329D01*
X019167Y030220D01*
X019190Y030111D01*
X019210Y030001D01*
X019226Y029890D01*
X019238Y029779D01*
X019246Y029668D01*
X019250Y029556D01*
X019250Y029444D01*
X019246Y029332D01*
X019238Y029221D01*
X019226Y029110D01*
X019210Y028999D01*
X019190Y028889D01*
X019167Y028780D01*
X019139Y028671D01*
X019108Y028564D01*
X019073Y028458D01*
X019034Y028353D01*
X018991Y028249D01*
X018945Y028148D01*
X018895Y028048D01*
X018842Y027949D01*
X018785Y027853D01*
X018725Y027759D01*
X018661Y027667D01*
X018595Y027577D01*
X018525Y027490D01*
X018452Y027405D01*
X018376Y027323D01*
X018298Y027243D01*
X018216Y027167D01*
X018132Y027093D01*
X018045Y027022D01*
X017956Y026955D01*
X017865Y026891D01*
X017771Y026830D01*
X017675Y026772D01*
X017577Y026718D01*
X017478Y026667D01*
X017376Y026620D01*
X017273Y026577D01*
X017169Y026537D01*
X017063Y026501D01*
X016956Y026468D01*
X016848Y026440D01*
X016739Y026415D01*
X016629Y026395D01*
X016518Y026378D01*
X016407Y026365D01*
X016296Y026356D01*
X016184Y026351D01*
X016072Y026350D01*
X015960Y026353D01*
X015849Y026360D01*
X015737Y026371D01*
X015627Y026386D01*
X015516Y026405D01*
X015407Y026427D01*
X015298Y026454D01*
X015191Y026484D01*
X015084Y026518D01*
X014979Y026556D01*
X014875Y026598D01*
X014773Y026643D01*
X014672Y026692D01*
X014574Y026744D01*
X014477Y026800D01*
X014382Y026860D01*
X014289Y026922D01*
X014199Y026988D01*
X014111Y027057D01*
X014026Y027129D01*
X013943Y027205D01*
X013863Y027283D01*
X013785Y027363D01*
X013711Y027447D01*
X013640Y027533D01*
X013571Y027621D01*
X013506Y027712D01*
X013445Y027806D01*
X013386Y027901D01*
X013331Y027998D01*
X013280Y028097D01*
X013232Y028198D01*
X013187Y028301D01*
X013146Y028405D01*
X013109Y028511D01*
X013076Y028617D01*
X013047Y028725D01*
X013021Y028834D01*
X012999Y028944D01*
X012982Y029054D01*
X012968Y029165D01*
X012958Y029277D01*
X012952Y029388D01*
X012950Y029500D01*
X014350Y022750D02*
X014850Y022750D01*
X012950Y022000D02*
X012952Y022112D01*
X012958Y022223D01*
X012968Y022335D01*
X012982Y022446D01*
X012999Y022556D01*
X013021Y022666D01*
X013047Y022775D01*
X013076Y022883D01*
X013109Y022989D01*
X013146Y023095D01*
X013187Y023199D01*
X013232Y023302D01*
X013280Y023403D01*
X013331Y023502D01*
X013386Y023599D01*
X013445Y023694D01*
X013506Y023788D01*
X013571Y023879D01*
X013640Y023967D01*
X013711Y024053D01*
X013785Y024137D01*
X013863Y024217D01*
X013943Y024295D01*
X014026Y024371D01*
X014111Y024443D01*
X014199Y024512D01*
X014289Y024578D01*
X014382Y024640D01*
X014477Y024700D01*
X014574Y024756D01*
X014672Y024808D01*
X014773Y024857D01*
X014875Y024902D01*
X014979Y024944D01*
X015084Y024982D01*
X015191Y025016D01*
X015298Y025046D01*
X015407Y025073D01*
X015516Y025095D01*
X015627Y025114D01*
X015737Y025129D01*
X015849Y025140D01*
X015960Y025147D01*
X016072Y025150D01*
X016184Y025149D01*
X016296Y025144D01*
X016407Y025135D01*
X016518Y025122D01*
X016629Y025105D01*
X016739Y025085D01*
X016848Y025060D01*
X016956Y025032D01*
X017063Y024999D01*
X017169Y024963D01*
X017273Y024923D01*
X017376Y024880D01*
X017478Y024833D01*
X017577Y024782D01*
X017675Y024728D01*
X017771Y024670D01*
X017865Y024609D01*
X017956Y024545D01*
X018045Y024478D01*
X018132Y024407D01*
X018216Y024333D01*
X018298Y024257D01*
X018376Y024177D01*
X018452Y024095D01*
X018525Y024010D01*
X018595Y023923D01*
X018661Y023833D01*
X018725Y023741D01*
X018785Y023647D01*
X018842Y023551D01*
X018895Y023452D01*
X018945Y023352D01*
X018991Y023251D01*
X019034Y023147D01*
X019073Y023042D01*
X019108Y022936D01*
X019139Y022829D01*
X019167Y022720D01*
X019190Y022611D01*
X019210Y022501D01*
X019226Y022390D01*
X019238Y022279D01*
X019246Y022168D01*
X019250Y022056D01*
X019250Y021944D01*
X019246Y021832D01*
X019238Y021721D01*
X019226Y021610D01*
X019210Y021499D01*
X019190Y021389D01*
X019167Y021280D01*
X019139Y021171D01*
X019108Y021064D01*
X019073Y020958D01*
X019034Y020853D01*
X018991Y020749D01*
X018945Y020648D01*
X018895Y020548D01*
X018842Y020449D01*
X018785Y020353D01*
X018725Y020259D01*
X018661Y020167D01*
X018595Y020077D01*
X018525Y019990D01*
X018452Y019905D01*
X018376Y019823D01*
X018298Y019743D01*
X018216Y019667D01*
X018132Y019593D01*
X018045Y019522D01*
X017956Y019455D01*
X017865Y019391D01*
X017771Y019330D01*
X017675Y019272D01*
X017577Y019218D01*
X017478Y019167D01*
X017376Y019120D01*
X017273Y019077D01*
X017169Y019037D01*
X017063Y019001D01*
X016956Y018968D01*
X016848Y018940D01*
X016739Y018915D01*
X016629Y018895D01*
X016518Y018878D01*
X016407Y018865D01*
X016296Y018856D01*
X016184Y018851D01*
X016072Y018850D01*
X015960Y018853D01*
X015849Y018860D01*
X015737Y018871D01*
X015627Y018886D01*
X015516Y018905D01*
X015407Y018927D01*
X015298Y018954D01*
X015191Y018984D01*
X015084Y019018D01*
X014979Y019056D01*
X014875Y019098D01*
X014773Y019143D01*
X014672Y019192D01*
X014574Y019244D01*
X014477Y019300D01*
X014382Y019360D01*
X014289Y019422D01*
X014199Y019488D01*
X014111Y019557D01*
X014026Y019629D01*
X013943Y019705D01*
X013863Y019783D01*
X013785Y019863D01*
X013711Y019947D01*
X013640Y020033D01*
X013571Y020121D01*
X013506Y020212D01*
X013445Y020306D01*
X013386Y020401D01*
X013331Y020498D01*
X013280Y020597D01*
X013232Y020698D01*
X013187Y020801D01*
X013146Y020905D01*
X013109Y021011D01*
X013076Y021117D01*
X013047Y021225D01*
X013021Y021334D01*
X012999Y021444D01*
X012982Y021554D01*
X012968Y021665D01*
X012958Y021777D01*
X012952Y021888D01*
X012950Y022000D01*
X021850Y022750D02*
X022350Y022750D01*
X020450Y022000D02*
X020452Y022112D01*
X020458Y022223D01*
X020468Y022335D01*
X020482Y022446D01*
X020499Y022556D01*
X020521Y022666D01*
X020547Y022775D01*
X020576Y022883D01*
X020609Y022989D01*
X020646Y023095D01*
X020687Y023199D01*
X020732Y023302D01*
X020780Y023403D01*
X020831Y023502D01*
X020886Y023599D01*
X020945Y023694D01*
X021006Y023788D01*
X021071Y023879D01*
X021140Y023967D01*
X021211Y024053D01*
X021285Y024137D01*
X021363Y024217D01*
X021443Y024295D01*
X021526Y024371D01*
X021611Y024443D01*
X021699Y024512D01*
X021789Y024578D01*
X021882Y024640D01*
X021977Y024700D01*
X022074Y024756D01*
X022172Y024808D01*
X022273Y024857D01*
X022375Y024902D01*
X022479Y024944D01*
X022584Y024982D01*
X022691Y025016D01*
X022798Y025046D01*
X022907Y025073D01*
X023016Y025095D01*
X023127Y025114D01*
X023237Y025129D01*
X023349Y025140D01*
X023460Y025147D01*
X023572Y025150D01*
X023684Y025149D01*
X023796Y025144D01*
X023907Y025135D01*
X024018Y025122D01*
X024129Y025105D01*
X024239Y025085D01*
X024348Y025060D01*
X024456Y025032D01*
X024563Y024999D01*
X024669Y024963D01*
X024773Y024923D01*
X024876Y024880D01*
X024978Y024833D01*
X025077Y024782D01*
X025175Y024728D01*
X025271Y024670D01*
X025365Y024609D01*
X025456Y024545D01*
X025545Y024478D01*
X025632Y024407D01*
X025716Y024333D01*
X025798Y024257D01*
X025876Y024177D01*
X025952Y024095D01*
X026025Y024010D01*
X026095Y023923D01*
X026161Y023833D01*
X026225Y023741D01*
X026285Y023647D01*
X026342Y023551D01*
X026395Y023452D01*
X026445Y023352D01*
X026491Y023251D01*
X026534Y023147D01*
X026573Y023042D01*
X026608Y022936D01*
X026639Y022829D01*
X026667Y022720D01*
X026690Y022611D01*
X026710Y022501D01*
X026726Y022390D01*
X026738Y022279D01*
X026746Y022168D01*
X026750Y022056D01*
X026750Y021944D01*
X026746Y021832D01*
X026738Y021721D01*
X026726Y021610D01*
X026710Y021499D01*
X026690Y021389D01*
X026667Y021280D01*
X026639Y021171D01*
X026608Y021064D01*
X026573Y020958D01*
X026534Y020853D01*
X026491Y020749D01*
X026445Y020648D01*
X026395Y020548D01*
X026342Y020449D01*
X026285Y020353D01*
X026225Y020259D01*
X026161Y020167D01*
X026095Y020077D01*
X026025Y019990D01*
X025952Y019905D01*
X025876Y019823D01*
X025798Y019743D01*
X025716Y019667D01*
X025632Y019593D01*
X025545Y019522D01*
X025456Y019455D01*
X025365Y019391D01*
X025271Y019330D01*
X025175Y019272D01*
X025077Y019218D01*
X024978Y019167D01*
X024876Y019120D01*
X024773Y019077D01*
X024669Y019037D01*
X024563Y019001D01*
X024456Y018968D01*
X024348Y018940D01*
X024239Y018915D01*
X024129Y018895D01*
X024018Y018878D01*
X023907Y018865D01*
X023796Y018856D01*
X023684Y018851D01*
X023572Y018850D01*
X023460Y018853D01*
X023349Y018860D01*
X023237Y018871D01*
X023127Y018886D01*
X023016Y018905D01*
X022907Y018927D01*
X022798Y018954D01*
X022691Y018984D01*
X022584Y019018D01*
X022479Y019056D01*
X022375Y019098D01*
X022273Y019143D01*
X022172Y019192D01*
X022074Y019244D01*
X021977Y019300D01*
X021882Y019360D01*
X021789Y019422D01*
X021699Y019488D01*
X021611Y019557D01*
X021526Y019629D01*
X021443Y019705D01*
X021363Y019783D01*
X021285Y019863D01*
X021211Y019947D01*
X021140Y020033D01*
X021071Y020121D01*
X021006Y020212D01*
X020945Y020306D01*
X020886Y020401D01*
X020831Y020498D01*
X020780Y020597D01*
X020732Y020698D01*
X020687Y020801D01*
X020646Y020905D01*
X020609Y021011D01*
X020576Y021117D01*
X020547Y021225D01*
X020521Y021334D01*
X020499Y021444D01*
X020482Y021554D01*
X020468Y021665D01*
X020458Y021777D01*
X020452Y021888D01*
X020450Y022000D01*
X029350Y022750D02*
X029850Y022750D01*
X027950Y022000D02*
X027952Y022112D01*
X027958Y022223D01*
X027968Y022335D01*
X027982Y022446D01*
X027999Y022556D01*
X028021Y022666D01*
X028047Y022775D01*
X028076Y022883D01*
X028109Y022989D01*
X028146Y023095D01*
X028187Y023199D01*
X028232Y023302D01*
X028280Y023403D01*
X028331Y023502D01*
X028386Y023599D01*
X028445Y023694D01*
X028506Y023788D01*
X028571Y023879D01*
X028640Y023967D01*
X028711Y024053D01*
X028785Y024137D01*
X028863Y024217D01*
X028943Y024295D01*
X029026Y024371D01*
X029111Y024443D01*
X029199Y024512D01*
X029289Y024578D01*
X029382Y024640D01*
X029477Y024700D01*
X029574Y024756D01*
X029672Y024808D01*
X029773Y024857D01*
X029875Y024902D01*
X029979Y024944D01*
X030084Y024982D01*
X030191Y025016D01*
X030298Y025046D01*
X030407Y025073D01*
X030516Y025095D01*
X030627Y025114D01*
X030737Y025129D01*
X030849Y025140D01*
X030960Y025147D01*
X031072Y025150D01*
X031184Y025149D01*
X031296Y025144D01*
X031407Y025135D01*
X031518Y025122D01*
X031629Y025105D01*
X031739Y025085D01*
X031848Y025060D01*
X031956Y025032D01*
X032063Y024999D01*
X032169Y024963D01*
X032273Y024923D01*
X032376Y024880D01*
X032478Y024833D01*
X032577Y024782D01*
X032675Y024728D01*
X032771Y024670D01*
X032865Y024609D01*
X032956Y024545D01*
X033045Y024478D01*
X033132Y024407D01*
X033216Y024333D01*
X033298Y024257D01*
X033376Y024177D01*
X033452Y024095D01*
X033525Y024010D01*
X033595Y023923D01*
X033661Y023833D01*
X033725Y023741D01*
X033785Y023647D01*
X033842Y023551D01*
X033895Y023452D01*
X033945Y023352D01*
X033991Y023251D01*
X034034Y023147D01*
X034073Y023042D01*
X034108Y022936D01*
X034139Y022829D01*
X034167Y022720D01*
X034190Y022611D01*
X034210Y022501D01*
X034226Y022390D01*
X034238Y022279D01*
X034246Y022168D01*
X034250Y022056D01*
X034250Y021944D01*
X034246Y021832D01*
X034238Y021721D01*
X034226Y021610D01*
X034210Y021499D01*
X034190Y021389D01*
X034167Y021280D01*
X034139Y021171D01*
X034108Y021064D01*
X034073Y020958D01*
X034034Y020853D01*
X033991Y020749D01*
X033945Y020648D01*
X033895Y020548D01*
X033842Y020449D01*
X033785Y020353D01*
X033725Y020259D01*
X033661Y020167D01*
X033595Y020077D01*
X033525Y019990D01*
X033452Y019905D01*
X033376Y019823D01*
X033298Y019743D01*
X033216Y019667D01*
X033132Y019593D01*
X033045Y019522D01*
X032956Y019455D01*
X032865Y019391D01*
X032771Y019330D01*
X032675Y019272D01*
X032577Y019218D01*
X032478Y019167D01*
X032376Y019120D01*
X032273Y019077D01*
X032169Y019037D01*
X032063Y019001D01*
X031956Y018968D01*
X031848Y018940D01*
X031739Y018915D01*
X031629Y018895D01*
X031518Y018878D01*
X031407Y018865D01*
X031296Y018856D01*
X031184Y018851D01*
X031072Y018850D01*
X030960Y018853D01*
X030849Y018860D01*
X030737Y018871D01*
X030627Y018886D01*
X030516Y018905D01*
X030407Y018927D01*
X030298Y018954D01*
X030191Y018984D01*
X030084Y019018D01*
X029979Y019056D01*
X029875Y019098D01*
X029773Y019143D01*
X029672Y019192D01*
X029574Y019244D01*
X029477Y019300D01*
X029382Y019360D01*
X029289Y019422D01*
X029199Y019488D01*
X029111Y019557D01*
X029026Y019629D01*
X028943Y019705D01*
X028863Y019783D01*
X028785Y019863D01*
X028711Y019947D01*
X028640Y020033D01*
X028571Y020121D01*
X028506Y020212D01*
X028445Y020306D01*
X028386Y020401D01*
X028331Y020498D01*
X028280Y020597D01*
X028232Y020698D01*
X028187Y020801D01*
X028146Y020905D01*
X028109Y021011D01*
X028076Y021117D01*
X028047Y021225D01*
X028021Y021334D01*
X027999Y021444D01*
X027982Y021554D01*
X027968Y021665D01*
X027958Y021777D01*
X027952Y021888D01*
X027950Y022000D01*
X036850Y022750D02*
X037350Y022750D01*
X035450Y022000D02*
X035452Y022112D01*
X035458Y022223D01*
X035468Y022335D01*
X035482Y022446D01*
X035499Y022556D01*
X035521Y022666D01*
X035547Y022775D01*
X035576Y022883D01*
X035609Y022989D01*
X035646Y023095D01*
X035687Y023199D01*
X035732Y023302D01*
X035780Y023403D01*
X035831Y023502D01*
X035886Y023599D01*
X035945Y023694D01*
X036006Y023788D01*
X036071Y023879D01*
X036140Y023967D01*
X036211Y024053D01*
X036285Y024137D01*
X036363Y024217D01*
X036443Y024295D01*
X036526Y024371D01*
X036611Y024443D01*
X036699Y024512D01*
X036789Y024578D01*
X036882Y024640D01*
X036977Y024700D01*
X037074Y024756D01*
X037172Y024808D01*
X037273Y024857D01*
X037375Y024902D01*
X037479Y024944D01*
X037584Y024982D01*
X037691Y025016D01*
X037798Y025046D01*
X037907Y025073D01*
X038016Y025095D01*
X038127Y025114D01*
X038237Y025129D01*
X038349Y025140D01*
X038460Y025147D01*
X038572Y025150D01*
X038684Y025149D01*
X038796Y025144D01*
X038907Y025135D01*
X039018Y025122D01*
X039129Y025105D01*
X039239Y025085D01*
X039348Y025060D01*
X039456Y025032D01*
X039563Y024999D01*
X039669Y024963D01*
X039773Y024923D01*
X039876Y024880D01*
X039978Y024833D01*
X040077Y024782D01*
X040175Y024728D01*
X040271Y024670D01*
X040365Y024609D01*
X040456Y024545D01*
X040545Y024478D01*
X040632Y024407D01*
X040716Y024333D01*
X040798Y024257D01*
X040876Y024177D01*
X040952Y024095D01*
X041025Y024010D01*
X041095Y023923D01*
X041161Y023833D01*
X041225Y023741D01*
X041285Y023647D01*
X041342Y023551D01*
X041395Y023452D01*
X041445Y023352D01*
X041491Y023251D01*
X041534Y023147D01*
X041573Y023042D01*
X041608Y022936D01*
X041639Y022829D01*
X041667Y022720D01*
X041690Y022611D01*
X041710Y022501D01*
X041726Y022390D01*
X041738Y022279D01*
X041746Y022168D01*
X041750Y022056D01*
X041750Y021944D01*
X041746Y021832D01*
X041738Y021721D01*
X041726Y021610D01*
X041710Y021499D01*
X041690Y021389D01*
X041667Y021280D01*
X041639Y021171D01*
X041608Y021064D01*
X041573Y020958D01*
X041534Y020853D01*
X041491Y020749D01*
X041445Y020648D01*
X041395Y020548D01*
X041342Y020449D01*
X041285Y020353D01*
X041225Y020259D01*
X041161Y020167D01*
X041095Y020077D01*
X041025Y019990D01*
X040952Y019905D01*
X040876Y019823D01*
X040798Y019743D01*
X040716Y019667D01*
X040632Y019593D01*
X040545Y019522D01*
X040456Y019455D01*
X040365Y019391D01*
X040271Y019330D01*
X040175Y019272D01*
X040077Y019218D01*
X039978Y019167D01*
X039876Y019120D01*
X039773Y019077D01*
X039669Y019037D01*
X039563Y019001D01*
X039456Y018968D01*
X039348Y018940D01*
X039239Y018915D01*
X039129Y018895D01*
X039018Y018878D01*
X038907Y018865D01*
X038796Y018856D01*
X038684Y018851D01*
X038572Y018850D01*
X038460Y018853D01*
X038349Y018860D01*
X038237Y018871D01*
X038127Y018886D01*
X038016Y018905D01*
X037907Y018927D01*
X037798Y018954D01*
X037691Y018984D01*
X037584Y019018D01*
X037479Y019056D01*
X037375Y019098D01*
X037273Y019143D01*
X037172Y019192D01*
X037074Y019244D01*
X036977Y019300D01*
X036882Y019360D01*
X036789Y019422D01*
X036699Y019488D01*
X036611Y019557D01*
X036526Y019629D01*
X036443Y019705D01*
X036363Y019783D01*
X036285Y019863D01*
X036211Y019947D01*
X036140Y020033D01*
X036071Y020121D01*
X036006Y020212D01*
X035945Y020306D01*
X035886Y020401D01*
X035831Y020498D01*
X035780Y020597D01*
X035732Y020698D01*
X035687Y020801D01*
X035646Y020905D01*
X035609Y021011D01*
X035576Y021117D01*
X035547Y021225D01*
X035521Y021334D01*
X035499Y021444D01*
X035482Y021554D01*
X035468Y021665D01*
X035458Y021777D01*
X035452Y021888D01*
X035450Y022000D01*
X043850Y022750D02*
X044350Y022750D01*
X042450Y022000D02*
X042452Y022112D01*
X042458Y022223D01*
X042468Y022335D01*
X042482Y022446D01*
X042499Y022556D01*
X042521Y022666D01*
X042547Y022775D01*
X042576Y022883D01*
X042609Y022989D01*
X042646Y023095D01*
X042687Y023199D01*
X042732Y023302D01*
X042780Y023403D01*
X042831Y023502D01*
X042886Y023599D01*
X042945Y023694D01*
X043006Y023788D01*
X043071Y023879D01*
X043140Y023967D01*
X043211Y024053D01*
X043285Y024137D01*
X043363Y024217D01*
X043443Y024295D01*
X043526Y024371D01*
X043611Y024443D01*
X043699Y024512D01*
X043789Y024578D01*
X043882Y024640D01*
X043977Y024700D01*
X044074Y024756D01*
X044172Y024808D01*
X044273Y024857D01*
X044375Y024902D01*
X044479Y024944D01*
X044584Y024982D01*
X044691Y025016D01*
X044798Y025046D01*
X044907Y025073D01*
X045016Y025095D01*
X045127Y025114D01*
X045237Y025129D01*
X045349Y025140D01*
X045460Y025147D01*
X045572Y025150D01*
X045684Y025149D01*
X045796Y025144D01*
X045907Y025135D01*
X046018Y025122D01*
X046129Y025105D01*
X046239Y025085D01*
X046348Y025060D01*
X046456Y025032D01*
X046563Y024999D01*
X046669Y024963D01*
X046773Y024923D01*
X046876Y024880D01*
X046978Y024833D01*
X047077Y024782D01*
X047175Y024728D01*
X047271Y024670D01*
X047365Y024609D01*
X047456Y024545D01*
X047545Y024478D01*
X047632Y024407D01*
X047716Y024333D01*
X047798Y024257D01*
X047876Y024177D01*
X047952Y024095D01*
X048025Y024010D01*
X048095Y023923D01*
X048161Y023833D01*
X048225Y023741D01*
X048285Y023647D01*
X048342Y023551D01*
X048395Y023452D01*
X048445Y023352D01*
X048491Y023251D01*
X048534Y023147D01*
X048573Y023042D01*
X048608Y022936D01*
X048639Y022829D01*
X048667Y022720D01*
X048690Y022611D01*
X048710Y022501D01*
X048726Y022390D01*
X048738Y022279D01*
X048746Y022168D01*
X048750Y022056D01*
X048750Y021944D01*
X048746Y021832D01*
X048738Y021721D01*
X048726Y021610D01*
X048710Y021499D01*
X048690Y021389D01*
X048667Y021280D01*
X048639Y021171D01*
X048608Y021064D01*
X048573Y020958D01*
X048534Y020853D01*
X048491Y020749D01*
X048445Y020648D01*
X048395Y020548D01*
X048342Y020449D01*
X048285Y020353D01*
X048225Y020259D01*
X048161Y020167D01*
X048095Y020077D01*
X048025Y019990D01*
X047952Y019905D01*
X047876Y019823D01*
X047798Y019743D01*
X047716Y019667D01*
X047632Y019593D01*
X047545Y019522D01*
X047456Y019455D01*
X047365Y019391D01*
X047271Y019330D01*
X047175Y019272D01*
X047077Y019218D01*
X046978Y019167D01*
X046876Y019120D01*
X046773Y019077D01*
X046669Y019037D01*
X046563Y019001D01*
X046456Y018968D01*
X046348Y018940D01*
X046239Y018915D01*
X046129Y018895D01*
X046018Y018878D01*
X045907Y018865D01*
X045796Y018856D01*
X045684Y018851D01*
X045572Y018850D01*
X045460Y018853D01*
X045349Y018860D01*
X045237Y018871D01*
X045127Y018886D01*
X045016Y018905D01*
X044907Y018927D01*
X044798Y018954D01*
X044691Y018984D01*
X044584Y019018D01*
X044479Y019056D01*
X044375Y019098D01*
X044273Y019143D01*
X044172Y019192D01*
X044074Y019244D01*
X043977Y019300D01*
X043882Y019360D01*
X043789Y019422D01*
X043699Y019488D01*
X043611Y019557D01*
X043526Y019629D01*
X043443Y019705D01*
X043363Y019783D01*
X043285Y019863D01*
X043211Y019947D01*
X043140Y020033D01*
X043071Y020121D01*
X043006Y020212D01*
X042945Y020306D01*
X042886Y020401D01*
X042831Y020498D01*
X042780Y020597D01*
X042732Y020698D01*
X042687Y020801D01*
X042646Y020905D01*
X042609Y021011D01*
X042576Y021117D01*
X042547Y021225D01*
X042521Y021334D01*
X042499Y021444D01*
X042482Y021554D01*
X042468Y021665D01*
X042458Y021777D01*
X042452Y021888D01*
X042450Y022000D01*
X046850Y028750D02*
X047350Y028750D01*
X044350Y014750D02*
X043850Y014750D01*
X042450Y014000D02*
X042452Y014112D01*
X042458Y014223D01*
X042468Y014335D01*
X042482Y014446D01*
X042499Y014556D01*
X042521Y014666D01*
X042547Y014775D01*
X042576Y014883D01*
X042609Y014989D01*
X042646Y015095D01*
X042687Y015199D01*
X042732Y015302D01*
X042780Y015403D01*
X042831Y015502D01*
X042886Y015599D01*
X042945Y015694D01*
X043006Y015788D01*
X043071Y015879D01*
X043140Y015967D01*
X043211Y016053D01*
X043285Y016137D01*
X043363Y016217D01*
X043443Y016295D01*
X043526Y016371D01*
X043611Y016443D01*
X043699Y016512D01*
X043789Y016578D01*
X043882Y016640D01*
X043977Y016700D01*
X044074Y016756D01*
X044172Y016808D01*
X044273Y016857D01*
X044375Y016902D01*
X044479Y016944D01*
X044584Y016982D01*
X044691Y017016D01*
X044798Y017046D01*
X044907Y017073D01*
X045016Y017095D01*
X045127Y017114D01*
X045237Y017129D01*
X045349Y017140D01*
X045460Y017147D01*
X045572Y017150D01*
X045684Y017149D01*
X045796Y017144D01*
X045907Y017135D01*
X046018Y017122D01*
X046129Y017105D01*
X046239Y017085D01*
X046348Y017060D01*
X046456Y017032D01*
X046563Y016999D01*
X046669Y016963D01*
X046773Y016923D01*
X046876Y016880D01*
X046978Y016833D01*
X047077Y016782D01*
X047175Y016728D01*
X047271Y016670D01*
X047365Y016609D01*
X047456Y016545D01*
X047545Y016478D01*
X047632Y016407D01*
X047716Y016333D01*
X047798Y016257D01*
X047876Y016177D01*
X047952Y016095D01*
X048025Y016010D01*
X048095Y015923D01*
X048161Y015833D01*
X048225Y015741D01*
X048285Y015647D01*
X048342Y015551D01*
X048395Y015452D01*
X048445Y015352D01*
X048491Y015251D01*
X048534Y015147D01*
X048573Y015042D01*
X048608Y014936D01*
X048639Y014829D01*
X048667Y014720D01*
X048690Y014611D01*
X048710Y014501D01*
X048726Y014390D01*
X048738Y014279D01*
X048746Y014168D01*
X048750Y014056D01*
X048750Y013944D01*
X048746Y013832D01*
X048738Y013721D01*
X048726Y013610D01*
X048710Y013499D01*
X048690Y013389D01*
X048667Y013280D01*
X048639Y013171D01*
X048608Y013064D01*
X048573Y012958D01*
X048534Y012853D01*
X048491Y012749D01*
X048445Y012648D01*
X048395Y012548D01*
X048342Y012449D01*
X048285Y012353D01*
X048225Y012259D01*
X048161Y012167D01*
X048095Y012077D01*
X048025Y011990D01*
X047952Y011905D01*
X047876Y011823D01*
X047798Y011743D01*
X047716Y011667D01*
X047632Y011593D01*
X047545Y011522D01*
X047456Y011455D01*
X047365Y011391D01*
X047271Y011330D01*
X047175Y011272D01*
X047077Y011218D01*
X046978Y011167D01*
X046876Y011120D01*
X046773Y011077D01*
X046669Y011037D01*
X046563Y011001D01*
X046456Y010968D01*
X046348Y010940D01*
X046239Y010915D01*
X046129Y010895D01*
X046018Y010878D01*
X045907Y010865D01*
X045796Y010856D01*
X045684Y010851D01*
X045572Y010850D01*
X045460Y010853D01*
X045349Y010860D01*
X045237Y010871D01*
X045127Y010886D01*
X045016Y010905D01*
X044907Y010927D01*
X044798Y010954D01*
X044691Y010984D01*
X044584Y011018D01*
X044479Y011056D01*
X044375Y011098D01*
X044273Y011143D01*
X044172Y011192D01*
X044074Y011244D01*
X043977Y011300D01*
X043882Y011360D01*
X043789Y011422D01*
X043699Y011488D01*
X043611Y011557D01*
X043526Y011629D01*
X043443Y011705D01*
X043363Y011783D01*
X043285Y011863D01*
X043211Y011947D01*
X043140Y012033D01*
X043071Y012121D01*
X043006Y012212D01*
X042945Y012306D01*
X042886Y012401D01*
X042831Y012498D01*
X042780Y012597D01*
X042732Y012698D01*
X042687Y012801D01*
X042646Y012905D01*
X042609Y013011D01*
X042576Y013117D01*
X042547Y013225D01*
X042521Y013334D01*
X042499Y013444D01*
X042482Y013554D01*
X042468Y013665D01*
X042458Y013777D01*
X042452Y013888D01*
X042450Y014000D01*
D11*
X042900Y017500D02*
X041300Y017500D01*
X041300Y018500D01*
X042900Y018500D01*
X042900Y017500D01*
X042350Y018000D02*
X042100Y018000D01*
X042100Y018250D01*
X042100Y018000D02*
X042100Y017750D01*
X042100Y018000D02*
X041500Y018000D01*
X041700Y018250D02*
X042100Y018000D01*
X041700Y017750D01*
X041700Y018250D01*
X035100Y018800D02*
X035100Y017200D01*
X034100Y017200D01*
X034100Y018800D01*
X035100Y018800D01*
X034850Y018400D02*
X034600Y018000D01*
X034850Y018000D01*
X034600Y018000D02*
X034350Y018000D01*
X034600Y018000D02*
X034350Y018400D01*
X034850Y018400D01*
X034600Y018600D02*
X034600Y018000D01*
X034600Y017750D01*
X028150Y017500D02*
X028150Y018500D01*
X026550Y018500D01*
X026550Y017500D01*
X028150Y017500D01*
X027600Y018000D02*
X027350Y018000D01*
X027350Y018250D01*
X027350Y018000D02*
X027350Y017750D01*
X027350Y018000D02*
X026950Y018250D01*
X026950Y017750D01*
X027350Y018000D01*
X026750Y018000D01*
X020350Y018550D02*
X020350Y016950D01*
X019350Y016950D01*
X019350Y018550D01*
X020350Y018550D01*
X020100Y018150D02*
X019850Y017750D01*
X020100Y017750D01*
X019850Y017750D02*
X019600Y017750D01*
X019850Y017750D02*
X019600Y018150D01*
X020100Y018150D01*
X019850Y018350D02*
X019850Y017750D01*
X019850Y017500D01*
X012900Y017500D02*
X012900Y018500D01*
X011300Y018500D01*
X011300Y017500D01*
X012900Y017500D01*
X012350Y018000D02*
X012100Y018000D01*
X012100Y018250D01*
X012100Y018000D02*
X012100Y017750D01*
X012100Y018000D02*
X011700Y017750D01*
X011700Y018250D01*
X012100Y018000D01*
X011500Y018000D01*
X009100Y018800D02*
X009100Y017200D01*
X008100Y017200D01*
X008100Y018800D01*
X009100Y018800D01*
X008600Y018250D02*
X008600Y018000D01*
X008350Y018000D01*
X008600Y018000D02*
X008350Y017600D01*
X008850Y017600D01*
X008600Y018000D01*
X008850Y018000D01*
X008600Y018000D02*
X008600Y017400D01*
X007600Y017200D02*
X006600Y017200D01*
X006600Y018800D01*
X007600Y018800D01*
X007600Y017200D01*
X007100Y017750D02*
X007100Y018000D01*
X007350Y018000D01*
X007100Y018000D02*
X006850Y018000D01*
X007100Y018000D02*
X006850Y018400D01*
X007350Y018400D01*
X007100Y018000D01*
X007100Y018600D01*
X011550Y031000D02*
X011550Y032000D01*
X013150Y032000D01*
X013150Y031000D01*
X011550Y031000D01*
X012100Y031500D02*
X012350Y031500D01*
X012350Y031250D01*
X012350Y031500D02*
X012350Y031750D01*
X012350Y031500D02*
X012750Y031750D01*
X012750Y031250D01*
X012350Y031500D01*
X012950Y031500D01*
X013150Y033000D02*
X011550Y033000D01*
X011550Y034000D01*
X013150Y034000D01*
X013150Y033000D01*
X012750Y033250D02*
X012350Y033500D01*
X012350Y033250D01*
X012350Y033500D02*
X012100Y033500D01*
X012350Y033500D02*
X012350Y033750D01*
X012350Y033500D02*
X012750Y033750D01*
X012750Y033250D01*
X012950Y033500D02*
X012350Y033500D01*
X011550Y035000D02*
X011550Y036000D01*
X013150Y036000D01*
X013150Y035000D01*
X011550Y035000D01*
X012100Y035500D02*
X012350Y035500D01*
X012350Y035250D01*
X012350Y035500D02*
X012350Y035750D01*
X012350Y035500D02*
X012750Y035750D01*
X012750Y035250D01*
X012350Y035500D01*
X012950Y035500D01*
X019350Y034050D02*
X019350Y032450D01*
X020350Y032450D01*
X020350Y034050D01*
X019350Y034050D01*
X019850Y033500D02*
X019850Y033250D01*
X019600Y033250D01*
X019850Y033250D02*
X019600Y032850D01*
X020100Y032850D01*
X019850Y033250D01*
X020100Y033250D01*
X019850Y033250D02*
X019850Y032650D01*
X026550Y032750D02*
X026550Y033750D01*
X028150Y033750D01*
X028150Y032750D01*
X026550Y032750D01*
X027100Y033250D02*
X027350Y033250D01*
X027350Y033000D01*
X027350Y033250D02*
X027350Y033500D01*
X027350Y033250D02*
X027750Y033500D01*
X027750Y033000D01*
X027350Y033250D01*
X027950Y033250D01*
X034350Y032450D02*
X035350Y032450D01*
X035350Y034050D01*
X034350Y034050D01*
X034350Y032450D01*
X034600Y032850D02*
X034850Y033250D01*
X034600Y033250D01*
X034850Y033250D02*
X035100Y033250D01*
X034850Y033250D02*
X034850Y032650D01*
X035100Y032850D02*
X034600Y032850D01*
X034850Y033250D02*
X035100Y032850D01*
X034850Y033250D02*
X034850Y033500D01*
X041300Y033750D02*
X041300Y032750D01*
X042900Y032750D01*
X042900Y033750D01*
X041300Y033750D01*
X041850Y033250D02*
X042100Y033250D01*
X042100Y033000D01*
X042100Y033250D02*
X042100Y033500D01*
X042100Y033250D02*
X042500Y033500D01*
X042500Y033000D01*
X042100Y033250D01*
X042700Y033250D01*
X046600Y032450D02*
X047600Y032450D01*
X047600Y034050D01*
X046600Y034050D01*
X046600Y032450D01*
X046850Y032850D02*
X047100Y033250D01*
X046850Y033250D01*
X047100Y033250D02*
X047350Y032850D01*
X046850Y032850D01*
X047100Y032650D02*
X047100Y033250D01*
X047350Y033250D01*
X047100Y033250D02*
X047100Y033500D01*
D12*
X041550Y033250D03*
X026800Y033250D03*
X011800Y033500D03*
X011800Y031500D03*
X011800Y035500D03*
X012650Y018000D03*
X027900Y018000D03*
X042650Y018000D03*
D13*
X043275Y018000D03*
X040925Y018000D03*
X028525Y018000D03*
X026175Y018000D03*
X013275Y018000D03*
X010925Y018000D03*
X011175Y031500D03*
X013525Y031500D03*
X013525Y033500D03*
X011175Y033500D03*
X011175Y035500D03*
X013525Y035500D03*
X026175Y033250D03*
X028525Y033250D03*
X040925Y033250D03*
X043275Y033250D03*
D14*
X047100Y033800D03*
X034850Y033800D03*
X019850Y033800D03*
X008600Y018550D03*
X007100Y017450D03*
X019850Y017200D03*
X034600Y017450D03*
D15*
X034600Y016825D03*
X034600Y019175D03*
X019850Y018925D03*
X019850Y016575D03*
X008600Y016825D03*
X007100Y016825D03*
X007100Y019175D03*
X008600Y019175D03*
X019850Y032075D03*
X019850Y034425D03*
X034850Y034425D03*
X034850Y032075D03*
X047100Y032075D03*
X047100Y034425D03*
D16*
X006025Y006622D02*
X006025Y006031D01*
X009175Y006031D01*
X009175Y009969D01*
X006025Y009969D01*
X006025Y009378D01*
X007600Y009378D01*
X007600Y008591D01*
X006025Y008591D01*
X006025Y009378D01*
X006025Y008591D02*
X006025Y007409D01*
X007600Y007409D01*
X007600Y006622D01*
X006025Y006622D01*
X006025Y007409D01*
X040131Y005925D02*
X040131Y009075D01*
X044069Y009075D01*
X044069Y005925D01*
X043478Y005925D01*
X043478Y007500D01*
X042691Y007500D01*
X042691Y005925D01*
X041509Y005925D01*
X041509Y007500D01*
X040722Y007500D01*
X040722Y005925D01*
X040131Y005925D01*
X040722Y005925D02*
X041509Y005925D01*
X042691Y005925D02*
X043478Y005925D01*
X045025Y006031D02*
X045025Y009969D01*
X048175Y009969D01*
X048175Y009378D01*
X046600Y009378D01*
X046600Y008591D01*
X048175Y008591D01*
X048175Y007409D01*
X046600Y007409D01*
X046600Y006622D01*
X048175Y006622D01*
X048175Y006031D01*
X045025Y006031D01*
X048175Y006622D02*
X048175Y007409D01*
X048175Y008591D02*
X048175Y009378D01*
M02*
