%
M48
M72
T01C0.0354
T02C0.0400
T03C0.0433
T04C0.0440
T05C0.1260
%
T01
X12100Y10000
X16100Y10000
X17600Y10000
X19100Y10000
X20600Y10000
X22100Y10000
X23600Y10000
X25100Y10000
X26600Y10000
X28100Y10000
X29600Y10000
X31100Y10000
X32600Y10000
X34100Y10000
X35600Y10000
X37100Y10000
X38600Y10000
X38600Y6000
X37100Y6000
X35600Y6000
X34100Y6000
X32600Y6000
X31100Y6000
X29600Y6000
X28100Y6000
X26600Y6000
X25100Y6000
X23600Y6000
X22100Y6000
X20600Y6000
X19100Y6000
X17600Y6000
T02
X17600Y14000
X14600Y14000
X10100Y14000
X7100Y14000
X7100Y22000
X10100Y22000
X14600Y22000
X17600Y22000
X22100Y22000
X25100Y22000
X29600Y22000
X32600Y22000
X37100Y22000
X40100Y22000
X44100Y22000
X47100Y22000
X47100Y29500
X44100Y29500
X40100Y29500
X37100Y29500
X32600Y29500
X29600Y29500
X25100Y29500
X22100Y29500
X17600Y29500
X14600Y29500
X10100Y29500
X7100Y29500
X7100Y37000
X10100Y37000
X14600Y37000
X17600Y37000
X22100Y37000
X25100Y37000
X29600Y37000
X32600Y37000
X37100Y37000
X40100Y37000
X44100Y37000
X47100Y37000
X47100Y14000
X44100Y14000
X40100Y14000
X37100Y14000
X32600Y14000
X29600Y14000
X25100Y14000
X22100Y14000
T03
X7206Y8984
X7206Y7016
X41116Y7106
X43084Y7106
X46994Y7016
X46994Y8984
T04
X44100Y18000
X40100Y18000
X34600Y16000
X34600Y20000
X29350Y18000
X25350Y18000
X19850Y19750
X19850Y15750
X14100Y18000
X10100Y18000
X8600Y16000
X7100Y16000
X7100Y20000
X8600Y20000
X19850Y31250
X19850Y35250
X14350Y35500
X14350Y33500
X14350Y31500
X10350Y31500
X10350Y33500
X10350Y35500
X25350Y33250
X29350Y33250
X34850Y31250
X34850Y35250
X40100Y33250
X44100Y33250
X47100Y31250
X47100Y35250
T05
X1600Y5000
X1600Y39000
X49100Y39000
X49100Y5000
M30
